<svg xmlns="http://www.w3.org/2000/svg" height="1024" preserveAspectRatio="none" style="display: block;" version="1.1" viewBox="0 0 2048 2048" width="1024">
<path d="M 0 0 L 2048 0 L 2048 2048 L 0 2048 L 0 0 z" fill="rgb(255,255,255)" transform="translate(0,0)"></path>
<path d="M 560.33 356.246 C 576.102 361.039 621.068 381.904 637.61 389.878 C 654.99 383.236 688.33 365.308 702.062 361.052 C 706.445 359.694 772.571 391.176 782.939 394.306 C 807.939 384.022 832.872 369.842 859.509 358.843 C 884.485 367.29 917.469 387.424 942.86 395.829 C 970.142 386.514 998.896 367.049 1022.93 358.832 C 1048.29 368.063 1077.63 385.289 1104.37 395.496 C 1129.79 386.05 1167.51 365.989 1189.8 359.537 C 1213.59 369.4 1243.42 386.063 1266.38 393.945 C 1277.4 390.567 1289.81 384.742 1300.62 380.118 C 1316.67 373.269 1332.77 366.556 1348.93 359.982 C 1367.7 369.685 1386.41 380.106 1405.43 389.137 C 1431.1 380.031 1455.52 365.88 1482.01 359.332 C 1491.6 356.96 1505.56 364.565 1506.18 374.531 C 1507.51 395.667 1506.97 417.53 1507.02 438.804 L 1507.25 621.549 L 1507.5 1396.14 L 1507.49 1564.81 C 1507.67 1598.54 1508.17 1632.28 1507.88 1666 C 1507.79 1676.29 1500.19 1683.13 1490.63 1684.86 C 1479.85 1686.81 1463.95 1671.89 1455.57 1665.82 C 1442.47 1656.35 1429.97 1646.23 1416.87 1636.89 C 1404.19 1648.64 1388.32 1657.92 1374.22 1667.96 C 1367.62 1672.65 1361.37 1678.48 1354.42 1682.56 C 1351.94 1684.01 1349.67 1685.08 1346.72 1685 C 1333.61 1684.63 1288.85 1646.41 1275.51 1636.37 C 1262.76 1645.31 1250.16 1654.44 1237.7 1663.78 C 1218.5 1678.14 1203.41 1697.34 1181.61 1669.47 C 1174.77 1660.73 1183.8 1653.54 1192.61 1652.92 C 1209.31 1639.95 1235.85 1608.12 1250.11 1590.64 C 1253.02 1581.4 1263.37 1567.17 1268.15 1558 C 1276.84 1541.31 1278.77 1527.07 1282.75 1509.43 C 1287.39 1532.45 1301.28 1547.69 1323.64 1554.45 C 1338.16 1558.85 1353.86 1557.1 1367.06 1549.61 C 1397.71 1532.63 1397.85 1507.24 1396.98 1476.02 C 1396.61 1462.85 1396.93 1448.53 1396.91 1435.26 L 1396.88 1283.5 L 1397.11 604.773 L 1396.93 490.52 C 1396.89 467.301 1393.94 432.387 1400.15 410.62 C 1382.67 401.708 1365.48 392.672 1347.83 384.079 C 1324.45 393.726 1289.59 410.031 1267.21 417.663 C 1240.97 406.318 1214.95 394.457 1189.17 382.09 C 1166.96 390.898 1145.26 401.896 1123.32 411.562 C 1110.69 417.126 1107.42 420.322 1093.51 414.592 C 1070.48 405.105 1046.53 390.867 1023.07 383.012 C 998.534 393.782 968.79 409.353 944.648 418.846 C 931.13 416.463 877.018 389.841 859.863 382.284 C 835.649 392.002 806.217 409.504 783.506 417.791 C 755.883 408.011 730.172 393.862 703.092 383.263 C 681.541 393.865 659.831 404.137 637.967 414.076 C 627.24 410.067 611.663 402.215 600.989 397.113 C 588.411 391.101 574.901 385.37 562.576 379.348 L 562.042 1557.35 C 569.563 1555.38 618.287 1515.58 629.408 1508.27 C 638.296 1513.55 649.644 1522.95 658.025 1529.46 C 671.132 1539.64 685.094 1550.04 697.631 1560.81 C 711.783 1550.81 751.355 1524.13 765.973 1518.16 L 767.283 1517.61 C 767.547 1517.5 767.811 1517.39 768.075 1517.29 C 782.209 1536.06 791.039 1566.1 796.492 1589.09 C 811.858 1607.32 834.76 1639.95 852.762 1652.21 C 893.518 1650.17 853.196 1690.05 840.049 1684.08 C 822.908 1676.29 788.424 1648.39 773.074 1637.27 C 759.634 1646.15 746.767 1655.85 733.84 1665.46 C 726.451 1670.94 718.538 1678.02 710.219 1681.94 C 706.529 1683.67 702.838 1684.62 698.763 1683.9 C 687.127 1681.83 643.964 1646.55 630.048 1637.89 C 618.333 1645.53 574.364 1677.52 566.196 1680.85 C 562.978 1682.19 559.432 1682.53 556.015 1681.84 C 548.075 1680.24 541.601 1673.83 541.462 1665.47 C 540.97 1635.8 541.078 1606.09 541.051 1576.42 L 541.127 1392.35 L 541.02 624.456 L 540.992 440.486 C 540.999 418.024 540.529 394.174 541.574 371.764 C 541.978 363.097 553.156 358.427 560.33 356.246 z" fill="rgb(0,34,49)" transform="translate(0,0)"></path>
<path d="M 1400.15 410.62 C 1401.71 411.069 1405.46 411.996 1406.93 411.538 C 1421.54 406.988 1439.34 398.983 1453.38 393.164 C 1452.95 444.394 1452.92 495.627 1453.29 546.858 C 1452.85 661.229 1453.05 775.602 1453.88 889.971 L 1455.13 1598.17 C 1441.77 1588.88 1428.51 1579.43 1415.37 1569.82 C 1391.55 1586.65 1369.06 1606.33 1345.01 1623.52 C 1322.93 1605.28 1301.51 1586.26 1280.8 1566.48 C 1276.11 1570.28 1253.63 1588.94 1250.11 1590.64 C 1253.02 1581.4 1263.37 1567.17 1268.15 1558 C 1276.84 1541.31 1278.77 1527.07 1282.75 1509.43 C 1287.39 1532.45 1301.28 1547.69 1323.64 1554.45 C 1338.16 1558.85 1353.86 1557.1 1367.06 1549.61 C 1397.71 1532.63 1397.85 1507.24 1396.98 1476.02 C 1396.61 1462.85 1396.93 1448.53 1396.91 1435.26 L 1396.88 1283.5 L 1397.11 604.773 L 1396.93 490.52 C 1396.89 467.301 1393.94 432.387 1400.15 410.62 z" fill="rgb(207,254,241)" transform="translate(0,0)"></path>
<path d="M 1453.38 393.164 C 1464.54 388.465 1474.57 384.251 1486.01 380.239 L 1486.21 1661.62 C 1473.33 1652.06 1460.53 1642.41 1447.78 1632.69 C 1440.09 1626.79 1432.03 1619.36 1423.52 1614.73 C 1420.74 1613.22 1417.75 1612.28 1414.56 1612.75 C 1406.84 1613.88 1356.59 1655.49 1345.12 1663.26 C 1328.4 1650.2 1291.51 1619.65 1275.26 1609.77 C 1266.55 1614.59 1255.47 1623.31 1247.25 1629.36 C 1233.12 1639.7 1219.05 1650.12 1205.04 1660.62 C 1199.45 1657.86 1197.54 1657.04 1192.61 1652.92 C 1209.31 1639.95 1235.85 1608.12 1250.11 1590.64 C 1253.63 1588.94 1276.11 1570.28 1280.8 1566.48 C 1301.51 1586.26 1322.93 1605.28 1345.01 1623.52 C 1369.06 1606.33 1391.55 1586.65 1415.37 1569.82 C 1428.51 1579.43 1441.77 1588.88 1455.13 1598.17 L 1453.88 889.971 C 1453.05 775.602 1452.85 661.229 1453.29 546.858 C 1452.92 495.627 1452.95 444.394 1453.38 393.164 z" fill="rgb(95,237,211)" transform="translate(0,0)"></path>
<path d="M 629.408 1508.27 C 638.296 1513.55 649.644 1522.95 658.025 1529.46 C 671.132 1539.64 685.094 1550.04 697.631 1560.81 C 711.783 1550.81 751.355 1524.13 765.973 1518.16 L 767.283 1517.61 C 767.547 1517.5 767.811 1517.39 768.075 1517.29 C 782.209 1536.06 791.039 1566.1 796.492 1589.09 C 787.486 1582.08 778.57 1574.95 769.744 1567.7 C 743.391 1584.91 720.193 1606.05 696.512 1621.77 C 677.704 1605.5 650.684 1582.94 629.386 1569.84 C 618.958 1576.65 567.912 1614.49 561.641 1616.3 C 561.601 1596.65 561.735 1577 562.042 1557.35 C 569.563 1555.38 618.287 1515.58 629.408 1508.27 z" fill="rgb(207,254,241)" transform="translate(0,0)"></path>
<path d="M 769.744 1567.7 C 778.57 1574.95 787.486 1582.08 796.492 1589.09 C 811.858 1607.32 834.76 1639.95 852.762 1652.21 C 848.891 1656.64 847.362 1658.48 842.604 1662.21 C 827.002 1649.69 787.942 1618.27 771.546 1611.53 C 762.264 1616.64 753.447 1623.9 744.831 1630.18 C 730.269 1640.78 715.97 1651.61 700.946 1661.59 C 683.378 1648.61 665.303 1636.17 647.603 1623.37 C 642.03 1619.34 636.407 1615.37 630.106 1612.57 C 609.261 1623.82 583.262 1648.05 561.614 1659.42 C 561.244 1647.07 560.527 1628.41 561.641 1616.3 C 567.912 1614.49 618.958 1576.65 629.386 1569.84 C 650.684 1582.94 677.704 1605.5 696.512 1621.77 C 720.193 1606.05 743.391 1584.91 769.744 1567.7 z" fill="rgb(95,237,211)" transform="translate(0,0)"></path>
<path d="M 1007.32 1180.21 C 1147.48 1171.22 1268.29 1277.76 1276.91 1417.94 C 1285.52 1558.12 1178.65 1678.64 1038.45 1686.87 C 898.787 1695.07 778.828 1588.7 770.25 1449.06 C 761.671 1309.42 867.709 1189.17 1007.32 1180.21 z" fill="rgb(0,34,49)" transform="translate(0,0)"></path>
<path d="M 829.911 1562.15 C 762.491 1460.86 784.601 1324.73 880.607 1249.99 C 976.613 1175.24 1114.02 1187.2 1195.67 1277.4 C 1276.94 1367.19 1275.64 1504.32 1192.69 1592.55 C 1109.74 1680.78 972.944 1690.53 878.325 1614.95 C 859.555 1599.96 843.223 1582.14 829.911 1562.15 z" fill="rgb(95,237,211)" transform="translate(0,0)"></path>
<path d="M 1195.67 1277.4 C 1276.94 1367.19 1275.64 1504.32 1192.69 1592.55 C 1109.74 1680.78 972.944 1690.53 878.325 1614.95 C 886.263 1615.94 897.405 1622.71 905.479 1625.47 C 913.263 1628.13 920.671 1630.29 928.719 1632.15 C 992.519 1646.46 1059.39 1634.71 1114.5 1599.52 C 1202.43 1543.28 1243.14 1436.08 1214.7 1335.65 C 1210.54 1320.92 1205.84 1305.33 1198.72 1291.85 C 1196.61 1287.84 1192.34 1281.32 1193.21 1277.48 L 1195.67 1277.4 z" fill="rgb(0,237,197)" transform="translate(0,0)"></path>
<path d="M 829.911 1562.15 C 762.491 1460.86 784.601 1324.73 880.607 1249.99 C 976.613 1175.24 1114.02 1187.2 1195.67 1277.4 L 1193.21 1277.48 C 1188.43 1271.73 1177.88 1264.95 1171.6 1260.77 C 1082.22 1201.25 967.939 1212.21 886.254 1280.58 C 810.937 1343.61 788.907 1450.92 823.633 1541.24 C 824.847 1544.35 831.766 1559.95 829.911 1562.15 z" fill="rgb(255,255,255)" transform="translate(0,0)"></path>
<path d="M 1031.04 1474.68 C 1010.58 1482.98 1012.4 1463.89 1012.47 1450.6 C 1012.78 1390.63 1012.74 1330.62 1012.61 1270.65 C 1010.26 1253.13 1033.49 1251.14 1033.92 1267.77 C 1034.37 1285.23 1034.1 1303.48 1034.07 1320.95 L 1034.01 1433.86 C 1051.45 1433.72 1153.83 1431.19 1162.57 1434.66 C 1165.04 1435.64 1166.98 1437.49 1167.77 1440.08 C 1169.06 1444.32 1167.06 1448.46 1165.22 1452.16 C 1169.12 1452.55 1174.73 1452.69 1176.79 1456.18 C 1183.82 1468.16 1180.28 1474.65 1166.76 1474.8 C 1137.29 1475.14 1108.67 1474.98 1079.25 1475.09 C 1071.07 1475.1 1036.17 1476.04 1031.04 1474.68 z" fill="rgb(0,34,49)" transform="translate(0,0)"></path>
<path d="M 1165.22 1452.16 C 1169.12 1452.55 1174.73 1452.69 1176.79 1456.18 C 1183.82 1468.16 1180.28 1474.65 1166.76 1474.8 C 1137.29 1475.14 1108.67 1474.98 1079.25 1475.09 C 1071.07 1475.1 1036.17 1476.04 1031.04 1474.68 C 1034.24 1469.48 1033.41 1461.15 1033.38 1454.9 C 1056.94 1454.42 1080.51 1454.23 1104.09 1454.33 C 1116.76 1454.31 1155.29 1455.32 1165.22 1452.16 z" fill="rgb(255,255,255)" transform="translate(0,0)"></path>
<path d="M 969.669 957.08 C 1000.76 924.117 1035.94 891.128 1068.28 858.817 L 1138.13 788.733 C 1148.16 778.809 1161.23 764.377 1172.87 756.677 C 1176.88 754.023 1187.09 755.063 1192.05 756.577 C 1233.33 779.456 1188.43 814.997 1169.77 833.662 L 1090.34 911.744 L 1032.64 969.714 C 1019.16 983.188 997.646 1007.94 978.779 1014.84 C 971.311 1017.57 954.555 1013.15 948.324 1008.7 C 940.744 1003.19 931.985 993.728 925.156 986.85 L 885.915 947.379 C 881.225 942.719 872.565 933.286 867.395 929.53 C 847.338 914.957 825.243 881.493 857.703 864.376 C 860.467 863.218 864.248 862.363 867.237 861.568 C 882.986 865.66 897.3 883.561 908.825 895.121 C 929.307 915.576 949.589 936.23 969.669 957.08 z" fill="rgb(95,237,211)" transform="translate(0,0)"></path>
<path d="M 1192.05 756.577 C 1233.33 779.456 1188.43 814.997 1169.77 833.662 L 1090.34 911.744 L 1032.64 969.714 C 1019.16 983.188 997.646 1007.94 978.779 1014.84 C 971.311 1017.57 954.555 1013.15 948.324 1008.7 C 940.744 1003.19 931.985 993.728 925.156 986.85 L 885.915 947.379 C 881.225 942.719 872.565 933.286 867.395 929.53 C 847.338 914.957 825.243 881.493 857.703 864.376 C 856.319 868.991 852.417 869.064 853.401 877.133 C 853.908 882.359 857.117 888.878 860.644 892.785 C 871.491 904.808 883.894 915.912 895.342 927.424 L 933.281 965.727 C 940.524 973.028 947.501 980.227 955.163 987.164 C 964.15 995.3 974.016 996.99 983.585 988.468 C 993.99 979.201 1003.48 968.601 1013.41 958.71 C 1033.75 938.739 1053.97 918.652 1074.07 898.451 C 1099.94 873.263 1125.63 847.898 1151.15 822.357 C 1163.23 810.178 1176.43 797.41 1187.41 784.255 C 1194.57 775.674 1193.5 767.122 1192.05 756.577 z" fill="rgb(0,34,49)" transform="translate(0,0)"></path>
<path d="M 812.357 599.275 C 830.596 598.787 851.484 599.533 870.044 599.646 L 976.002 599.86 C 1058.9 599.775 1141.81 599.041 1224.71 599.03 C 1238.12 599.028 1242.28 611.007 1231.05 619.788 C 1210.21 621.227 1176.16 620.053 1153.77 620.061 L 996.153 619.922 L 871.596 620.099 C 852.819 620.111 833.338 620.201 814.509 619.976 C 811.874 619.778 807.956 618.228 806.69 615.759 C 802.893 608.352 806.272 603.129 812.357 599.275 z" fill="rgb(0,34,49)" transform="translate(0,0)"></path>
<metadata><recraft-signature>{"signed_by": "recraft", "signature_b64": "IRIZJI88KB0QgtNaqmIu2uGvv0vbkR9wGA0gRanutaIajvYoVOMom7uUR2vZJffDTR2sjoV64umSjQEuD2oECA==", "signing_algo": "Ed25519", "generation_timestamp": 1781649552, "identifier": "ef52c30c-46eb-4903-9798-1b6dea4a57b0"}</recraft-signature></metadata></svg>