<svg xmlns="http://www.w3.org/2000/svg" height="1024" preserveAspectRatio="none" style="display: block;" version="1.1" viewBox="0 0 2048 2048" width="1024">
<path d="M 0 0 L 2048 0 L 2048 2048 L 0 2048 L 0 0 z" fill="rgb(255,255,255)" transform="translate(0,0)"></path>
<path d="M 468.675 1610.12 C 444.205 1607.97 424.469 1606.06 430.04 1575.06 C 435.148 1546.63 440.436 1518.15 445.681 1489.74 C 456.085 1431.54 466.938 1373.41 478.238 1315.37 L 558.808 881.482 L 622.612 538.695 L 640.245 444.356 C 643.824 424.197 646.919 403.97 651.073 383.934 C 654.631 366.768 667.256 360.711 683.761 361.963 C 699.502 363.158 715.141 364.904 730.842 366.537 L 812.616 375.016 L 1111.64 407.403 L 1322.27 429.795 L 1381.32 436.223 C 1391.98 437.345 1402.85 437.987 1413.39 439.915 C 1434.83 443.839 1430.83 458.4 1427.34 474.259 C 1432.22 478.39 1477.83 474.951 1477.42 497.704 C 1477.01 520.247 1469.25 556.693 1465.03 579.177 L 1428.11 781.768 C 1425.29 797.172 1422.22 812.528 1418.89 827.83 C 1417.53 834.351 1414.2 848.802 1413.83 854.798 C 1442.46 847.176 1471.69 856.046 1478.92 887.798 C 1479.59 890.789 1480.12 893.811 1480.51 896.853 C 1500.15 916.099 1500.11 935.207 1481.99 955.61 C 1496.44 967.248 1497.63 970.575 1502.92 988.297 C 1510.63 1014.19 1516.96 1040.93 1526.54 1066.19 L 1527.81 1067.04 C 1543.87 1077.77 1572.55 1084.1 1590.81 1091.54 C 1613.86 1100.94 1624.61 1100.65 1612.26 1129.16 C 1618.38 1131.11 1624.1 1132.13 1627.4 1138.35 C 1632.16 1147.3 1626.56 1163.9 1621.32 1171.71 L 1620.21 1173.39 C 1603.74 1172.31 1571.66 1163.24 1554.03 1159.65 C 1541.14 1157.03 1507.94 1151.12 1497.2 1146.66 C 1495.57 1160.46 1492.49 1189.76 1488.89 1203.16 C 1508.23 1262.5 1524.85 1322.3 1543.79 1381.66 C 1548.44 1392.41 1564.88 1440.85 1562.78 1450.41 C 1558.03 1453.3 1512.9 1449.72 1503.82 1448.68 C 1498.09 1436.67 1500.81 1432.36 1486.77 1431.22 C 1479.72 1430.12 1475.45 1428.07 1471.78 1421.48 C 1463.63 1406.83 1457.28 1390.98 1450.37 1375.67 C 1436.57 1345.8 1423 1315.81 1409.67 1285.72 C 1397.3 1324.57 1409.37 1345.61 1378.66 1379.15 C 1355.3 1404.67 1333.82 1439.27 1310.4 1465.42 L 1299.62 1467.4 C 1290.16 1522.21 1280.32 1576.95 1270.11 1631.62 C 1265.85 1655.51 1263.02 1679.78 1257.58 1703.37 C 1254.4 1717.16 1239.54 1728.35 1225.37 1727.23 C 1197.33 1725.01 1169.46 1720.78 1141.43 1718.27 C 1040.36 1708.62 939.389 1698.07 838.515 1686.61 L 581.38 1660.4 L 523.008 1654.1 C 492.557 1651.05 451.468 1654.97 468.675 1610.12 z" fill="rgb(0,34,49)" transform="translate(0,0)"></path>
<path d="M 1401.5 1268.78 C 1404.32 1274.39 1407.04 1280.03 1409.67 1285.72 C 1397.3 1324.57 1409.37 1345.61 1378.66 1379.15 C 1355.3 1404.67 1333.82 1439.27 1310.4 1465.42 L 1299.62 1467.4 C 1290.16 1522.21 1280.32 1576.95 1270.11 1631.62 C 1265.85 1655.51 1263.02 1679.78 1257.58 1703.37 C 1254.4 1717.16 1239.54 1728.35 1225.37 1727.23 C 1197.33 1725.01 1169.46 1720.78 1141.43 1718.27 C 1040.36 1708.62 939.389 1698.07 838.515 1686.61 L 581.38 1660.4 L 523.008 1654.1 C 492.557 1651.05 451.468 1654.97 468.675 1610.12 L 1020.36 1666.33 L 1112.96 1675.33 C 1129.27 1676.92 1181.99 1683.4 1195.05 1680.34 C 1214.48 1685.46 1221.52 1680.67 1225.21 1661.57 C 1232.69 1622.86 1238.58 1583.88 1245.71 1545.09 L 1258.38 1476.7 C 1260.42 1465.66 1264.66 1445.53 1265 1435.06 C 1278.22 1446.05 1286.22 1447.83 1297.69 1432.85 C 1325.47 1396.56 1360.79 1360.04 1386.32 1322.6 C 1389.72 1317.62 1399.18 1277.29 1401.5 1268.78 z" fill="rgb(0,237,197)" transform="translate(0,0)"></path>
<path d="M 1427.34 474.259 C 1432.22 478.39 1477.83 474.951 1477.42 497.704 C 1477.01 520.247 1469.25 556.693 1465.03 579.177 L 1428.11 781.768 C 1425.29 797.172 1422.22 812.528 1418.89 827.83 C 1417.53 834.351 1414.2 848.802 1413.83 854.798 C 1380.59 870.201 1371.56 907.703 1398.18 934.251 C 1397.57 939.488 1397.32 942.601 1398.98 947.714 C 1388.22 952.143 1369.66 960.142 1366.19 971.639 C 1358.77 996.27 1355.72 1028.12 1351.32 1053.95 C 1341.28 1110.91 1331.91 1167.99 1323.22 1225.17 C 1320.53 1242 1316.81 1260.01 1314.43 1276.59 C 1307.43 1285.01 1298.1 1297.95 1291.57 1305.24 C 1291.81 1288.59 1298.42 1255.75 1301.48 1238.23 L 1327.42 1096.41 L 1409.15 638.42 C 1416.72 595.844 1426.17 552.331 1433.18 509.845 C 1429.16 508.318 1425.85 507.859 1421.65 507.065 C 1423.4 496.105 1425.3 485.169 1427.34 474.259 z" fill="rgb(0,237,197)" transform="translate(0,0)"></path>
<path d="M 1421.65 507.065 C 1425.85 507.859 1429.16 508.318 1433.18 509.845 C 1426.17 552.331 1416.72 595.844 1409.15 638.42 L 1327.42 1096.41 L 1301.48 1238.23 C 1298.42 1255.75 1291.81 1288.59 1291.57 1305.24 C 1285.83 1313.9 1281.54 1320.18 1276.91 1329.55 C 1281.06 1300.18 1287.85 1265.73 1292.94 1235.99 L 1335.16 997.384 L 1421.65 507.065 z" fill="rgb(255,255,255)" transform="translate(0,0)"></path>
<path d="M 1612.26 1129.16 C 1618.38 1131.11 1624.1 1132.13 1627.4 1138.35 C 1632.16 1147.3 1626.56 1163.9 1621.32 1171.71 L 1620.21 1173.39 C 1603.74 1172.31 1571.66 1163.24 1554.03 1159.65 C 1541.14 1157.03 1507.94 1151.12 1497.2 1146.66 C 1495.57 1160.46 1492.49 1189.76 1488.89 1203.16 C 1486.43 1195.57 1482.52 1187.01 1482.65 1179.14 C 1482.92 1163.93 1484.69 1147.5 1485.66 1132.34 C 1503.21 1134.65 1591.52 1157.72 1600.53 1153.03 C 1608.03 1149.12 1610.05 1136.62 1612.26 1129.16 z" fill="rgb(0,237,197)" transform="translate(0,0)"></path>
<path d="M 1258.6 1424.96 L 1265 1435.06 C 1264.66 1445.53 1260.42 1465.66 1258.38 1476.7 L 1245.71 1545.09 C 1238.58 1583.88 1232.69 1622.86 1225.21 1661.57 C 1221.52 1680.67 1214.48 1685.46 1195.05 1680.34 C 1202.22 1676.98 1212.33 1669.57 1214.54 1661.85 C 1222.5 1633.94 1226.4 1603.29 1231.36 1574.68 L 1258.6 1424.96 z" fill="rgb(255,255,255)" transform="translate(0,0)"></path>
<path d="M 1543.79 1381.66 C 1548.44 1392.41 1564.88 1440.85 1562.78 1450.41 C 1558.03 1453.3 1512.9 1449.72 1503.82 1448.68 C 1498.09 1436.67 1500.81 1432.36 1486.77 1431.22 C 1502.91 1430.4 1520.7 1432.6 1536.84 1432.93 C 1541.51 1433.13 1549.51 1431.72 1552.44 1427.65 C 1555.68 1423.04 1551.64 1413.79 1550.36 1408.62 C 1548.1 1399.45 1544.85 1391.2 1543.79 1381.66 z" fill="rgb(0,237,197)" transform="translate(0,0)"></path>
<path d="M 1480.51 896.853 C 1500.15 916.099 1500.11 935.207 1481.99 955.61 C 1471.4 949.696 1459.61 946.243 1447.5 945.507 C 1470.04 933.695 1479.5 923.564 1480.51 896.853 z" fill="rgb(0,237,197)" transform="translate(0,0)"></path>
<path d="M 1398.18 934.251 C 1404.03 938.062 1407.84 940.707 1414.25 943.527 C 1409.18 945.016 1404.09 946.411 1398.98 947.714 C 1397.32 942.601 1397.57 939.488 1398.18 934.251 z" fill="rgb(255,255,255)" transform="translate(0,0)"></path>
<path d="M 675.003 384.408 C 697.364 384.957 737.843 391.068 762.025 393.756 L 934.998 412.397 C 1034.4 421.924 1133.72 432.325 1232.94 443.599 C 1288.82 449.383 1351.81 454.661 1407.02 462.039 L 1404.71 472.964 C 1402.78 483.261 1400.19 495.558 1398.67 505.786 C 1347.02 804.174 1293.53 1102.24 1238.19 1399.96 C 1222.18 1482.95 1209.4 1566.97 1193.85 1650.08 C 1192.63 1656.59 1187.57 1659.91 1181.09 1658.54 C 1159.93 1656.41 1138.78 1654.15 1117.6 1652.06 L 971.274 1637.49 C 817.907 1622.46 664.622 1606.62 511.425 1589.95 C 495.598 1588.45 479.754 1587.14 463.895 1586.01 L 451.14 1584.64 C 460.199 1548.15 467.645 1499.32 475.073 1460.96 L 528.499 1171.76 L 620.29 681.52 C 630.784 624.287 642.692 564.759 652.337 507.75 L 665.071 436.517 C 667.652 421.423 670.518 398.576 675.003 384.408 z" fill="rgb(255,255,255)" transform="translate(0,0)"></path>
<path d="M 675.003 384.408 C 697.364 384.957 737.843 391.068 762.025 393.756 L 934.998 412.397 C 1034.4 421.924 1133.72 432.325 1232.94 443.599 C 1288.82 449.383 1351.81 454.661 1407.02 462.039 L 1404.71 472.964 C 1402.78 483.261 1400.19 495.558 1398.67 505.786 C 1392.59 502.705 1231.78 486.942 1213.5 485.016 L 723.118 433.716 L 585.343 1177.82 L 534.624 1460.86 C 526.863 1503.85 520.187 1547.14 511.425 1589.95 C 495.598 1588.45 479.754 1587.14 463.895 1586.01 L 451.14 1584.64 C 460.199 1548.15 467.645 1499.32 475.073 1460.96 L 528.499 1171.76 L 620.29 681.52 C 630.784 624.287 642.692 564.759 652.337 507.75 L 665.071 436.517 C 667.652 421.423 670.518 398.576 675.003 384.408 z" fill="rgb(0,237,197)" transform="translate(0,0)"></path>
<path d="M 675.003 384.408 C 697.364 384.957 737.843 391.068 762.025 393.756 L 934.998 412.397 C 1034.4 421.924 1133.72 432.325 1232.94 443.599 C 1288.82 449.383 1351.81 454.661 1407.02 462.039 L 1404.71 472.964 C 1364.24 466.437 1318.52 462.788 1277.5 458.794 L 1147.02 445.068 L 698.853 396.638 C 692.25 399.511 684.875 403.627 682.893 411.011 C 677.503 431.088 674.564 453.842 670.542 474.355 C 657.809 541.563 645.441 608.84 633.44 676.182 L 513.882 1318.61 L 481.066 1495.52 C 476.178 1522.16 470.521 1561.16 463.895 1586.01 L 451.14 1584.64 C 460.199 1548.15 467.645 1499.32 475.073 1460.96 L 528.499 1171.76 L 620.29 681.52 C 630.784 624.287 642.692 564.759 652.337 507.75 L 665.071 436.517 C 667.652 421.423 670.518 398.576 675.003 384.408 z" fill="rgb(255,255,255)" transform="translate(0,0)"></path>
<path d="M 1386.89 979.809 C 1408.44 958.971 1461.62 955.589 1477.71 982.84 C 1482.16 1001.72 1489.52 1022.42 1494.92 1041.4 C 1498.65 1054.5 1503.09 1074.31 1507.63 1086.13 C 1538.02 1094.5 1563.1 1105.38 1592.58 1115.74 L 1588.2 1131.8 C 1557.21 1123.67 1519.57 1116.14 1487.88 1109.61 C 1482.85 1094.95 1477.03 1080.57 1470.44 1066.54 C 1467.41 1104.96 1460.6 1145.67 1460 1184.39 C 1459.85 1194.53 1466.81 1209.2 1469.47 1219.06 C 1488.85 1276.44 1503.9 1335.2 1522.42 1392.87 C 1524.27 1398.62 1526.46 1404.57 1528.04 1410.38 C 1515.55 1409 1503 1408.18 1490.43 1407.93 C 1469.86 1361.5 1448.46 1315.45 1426.23 1269.79 C 1417.96 1252.58 1404 1220.43 1392.77 1206.03 C 1387.45 1234.1 1376.55 1282.22 1367.01 1310.04 C 1363.4 1320.57 1334.96 1347.18 1328.53 1358.28 C 1313.12 1376.83 1296.55 1400.76 1280.6 1418.06 C 1278.09 1413.51 1270.76 1399.33 1267.36 1397.08 C 1265.51 1391.91 1267.1 1378.39 1270 1374.35 C 1288.43 1348.59 1311.86 1310.21 1334.49 1289.04 C 1340.51 1263.45 1344.03 1233.18 1348.34 1207.04 L 1372.09 1064.28 C 1374.95 1046.35 1381.72 994.672 1386.89 979.809 z" fill="rgb(0,237,197)" transform="translate(0,0)"></path>
<path d="M 1386.89 979.809 C 1408.44 958.971 1461.62 955.589 1477.71 982.84 C 1473.78 983.467 1467.55 979.921 1462.24 978.602 C 1440.32 973.154 1413.46 975.223 1396.13 990.914 C 1391.17 1010.46 1388.75 1034.24 1385.12 1054.61 L 1357.51 1218.5 C 1354.24 1238.94 1351.38 1278.45 1343.54 1295.93 C 1339.29 1305.43 1276.56 1387.83 1267.36 1397.08 C 1265.51 1391.91 1267.1 1378.39 1270 1374.35 C 1288.43 1348.59 1311.86 1310.21 1334.49 1289.04 C 1340.51 1263.45 1344.03 1233.18 1348.34 1207.04 L 1372.09 1064.28 C 1374.95 1046.35 1381.72 994.672 1386.89 979.809 z" fill="rgb(255,255,255)" transform="translate(0,0)"></path>
<path d="M 1409.66 915.011 C 1394.29 886.095 1425.68 859.437 1451.41 881.592 C 1476.36 907.201 1431.8 944.829 1409.66 915.011 z" fill="rgb(0,237,197)" transform="translate(0,0)"></path>
<path d="M 1409.66 915.011 C 1394.29 886.095 1425.68 859.437 1451.41 881.592 L 1444.05 881.25 C 1425.73 880.505 1416.88 901.155 1409.66 915.011 z" fill="rgb(255,255,255)" transform="translate(0,0)"></path>
<metadata><recraft-signature>{"signed_by": "recraft", "signature_b64": "8BU6aEA9jmQAsDqLTrOeIXPydgHWSP0Xg3xKtDpEvCg0erh65OUH9+ayuvsksYsOzzexbbcU1fzNJTG0cI0XDw==", "signing_algo": "Ed25519", "generation_timestamp": 1781649977, "identifier": "ba49f50b-fa45-4d4a-96b3-7e5f5883d545"}</recraft-signature></metadata></svg>