<svg xmlns="http://www.w3.org/2000/svg" height="1024" preserveAspectRatio="none" style="display: block;" version="1.1" viewBox="0 0 2048 2048" width="1024">
<path d="M 0 0 L 2048 0 L 2048 2048 L 0 2048 L 0 0 z" fill="rgb(255,255,255)" transform="translate(0,0)"></path>
<path d="M 744.435 1192.21 C 707.694 1151.25 669.37 1111.84 633.32 1070.27 C 566.143 992.964 501.226 912.444 447.297 825.075 C 401.703 751.211 333.212 629.474 406.823 552.208 C 437.027 520.503 469.172 489.159 499.783 457.678 L 537.463 418.957 C 545.489 410.753 555.208 400.078 564.486 393.493 C 581.273 381.578 610.138 379.096 627.196 391.495 C 637.701 399.132 648.065 410.527 657.255 419.83 C 668.606 431.308 680.065 442.679 691.631 453.942 L 772.718 534.428 C 796.483 557.595 820.629 580.525 844.244 603.83 C 860.761 620.13 864.409 630.037 864.219 652.625 C 875.341 667.007 879.679 689.595 868.073 705.403 C 854.973 723.246 836.144 738.017 820.989 754.202 C 801.889 772.587 775.455 802.611 755.163 818.713 C 762.833 829.941 790.786 856.2 801.577 867.303 L 934.899 1002.26 L 1331.14 605.277 L 1449.3 486.111 C 1460.34 475.185 1485.2 448.768 1496.46 441.444 C 1497.82 441.346 1499 441.372 1500.31 441.79 C 1505.1 443.31 1509.49 446.693 1513.22 449.956 C 1522.34 457.935 1600.59 535.554 1604.02 542.42 C 1606.08 546.541 1605.39 550.151 1603.93 554.307 C 1612.48 558.977 1629.4 571.82 1619.99 581.963 C 1590.81 613.42 1557.52 644.207 1527.32 674.601 L 1226.29 975.352 L 1125.42 1075.28 C 1108.92 1091.55 1082.66 1121.01 1063.14 1133.26 L 1181.07 1251.76 C 1198.56 1269.3 1215.48 1287.45 1233.63 1304.21 C 1256.23 1325.09 1280.11 1292.58 1295.33 1277 C 1310.29 1261.57 1325.44 1246.31 1340.75 1231.23 C 1362.65 1209.55 1378.77 1188.37 1413.72 1193.31 C 1427.85 1195.31 1437.07 1199.76 1447.21 1209.92 C 1488.79 1251.57 1529.94 1293.9 1571.67 1335.38 C 1593.23 1356.53 1614.46 1378.01 1635.36 1399.81 C 1658.27 1423.4 1677.09 1436.77 1665.86 1474.19 C 1695.29 1516.33 1666.04 1538.59 1637.53 1566.57 L 1592.79 1610.24 L 1544.68 1656.95 C 1533.21 1668.08 1520.02 1681.95 1506.9 1690.61 C 1482.77 1706.55 1438.09 1702.61 1417.99 1681.6 C 1416.88 1681.72 1416.76 1681.75 1415.47 1681.77 C 1319.57 1683.35 1121.61 1534.33 1045.71 1472.17 C 988.88 1425.07 933.841 1375.85 880.705 1324.63 C 850.363 1356.75 819.292 1384.67 788.665 1415.97 L 655.113 1550.33 C 628.866 1576.79 601.752 1605.89 575 1631.25 C 569.825 1625.99 557.343 1611.82 550.827 1610.17 C 549.572 1610.65 550.106 1610.58 548.739 1610.54 C 546.589 1610.48 543.768 1607.62 542.171 1606.14 C 524.019 1589.33 507.023 1570.75 489.584 1553.16 C 471.817 1535.24 453.313 1517.93 436.142 1499.45 C 467.347 1466.43 504.722 1431.64 537.125 1399.13 L 674.973 1262.36 C 698.42 1238.99 720.679 1215.38 744.435 1192.21 z" fill="rgb(0,34,49)" transform="translate(0,0)"></path>
<path d="M 1603.93 554.307 C 1612.48 558.977 1629.4 571.82 1619.99 581.963 C 1590.81 613.42 1557.52 644.207 1527.32 674.601 L 1226.29 975.352 L 1125.42 1075.28 C 1108.92 1091.55 1082.66 1121.01 1063.14 1133.26 C 1057.45 1127.97 1050.97 1120.81 1045.52 1115.09 C 1063.05 1095.5 1084.13 1075.22 1102.91 1056.59 L 1175.09 984.415 L 1444.49 714.525 C 1480.33 679.159 1515.97 643.605 1551.43 607.864 C 1568.73 590.436 1587.39 572.337 1603.93 554.307 z" fill="rgb(207,254,241)" transform="translate(0,0)"></path>
<path d="M 858.066 1303.49 C 865.149 1310.77 873.156 1317.78 880.705 1324.63 C 850.363 1356.75 819.292 1384.67 788.665 1415.97 L 655.113 1550.33 C 628.866 1576.79 601.752 1605.89 575 1631.25 C 569.825 1625.99 557.343 1611.82 550.827 1610.17 C 557.124 1601.49 570.974 1588.88 578.701 1580.83 C 600.743 1557.89 624.644 1536.42 647.203 1514.13 L 858.066 1303.49 z" fill="rgb(207,254,241)" transform="translate(0,0)"></path>
<path d="M 1665.86 1474.19 C 1695.29 1516.33 1666.04 1538.59 1637.53 1566.57 L 1592.79 1610.24 L 1544.68 1656.95 C 1533.21 1668.08 1520.02 1681.95 1506.9 1690.61 C 1482.77 1706.55 1438.09 1702.61 1417.99 1681.6 C 1473.71 1677.63 1486.03 1658.03 1523.09 1621.89 L 1593.78 1553.14 C 1606.91 1540.6 1620.14 1528.16 1633.48 1515.84 C 1650.36 1500.08 1657.12 1496.28 1665.86 1474.19 z" fill="rgb(0,237,197)" transform="translate(0,0)"></path>
<path d="M 864.219 652.625 C 875.341 667.007 879.679 689.595 868.073 705.403 C 854.973 723.246 836.144 738.017 820.989 754.202 C 801.889 772.587 775.455 802.611 755.163 818.713 L 754.527 817.65 C 737.598 788.705 760.132 771.196 779.361 752.099 L 824.344 707.435 C 842.798 689.07 857.362 678.717 864.219 652.625 z" fill="rgb(0,237,197)" transform="translate(0,0)"></path>
<path d="M 526.399 465.156 C 536.583 473.695 547.234 485.47 556.582 495.229 C 630.564 570.486 705.749 644.55 782.109 717.393 C 735.57 763.837 693.121 795.005 756.362 855.98 C 811.289 908.939 864.21 965.592 918.791 1019.03 C 878.492 1057.6 838.973 1096.98 800.258 1137.14 C 792.418 1145.19 784.362 1153.03 776.099 1160.66 C 773.193 1163.36 765.098 1170.4 763.068 1172.89 C 761.889 1173.61 762.654 1173.31 760.636 1173.29 C 753.135 1166.44 745.556 1158.15 738.491 1150.75 C 640.488 1048.48 398.738 777.917 397.792 637.997 C 397.671 619.994 401.522 602.51 410.356 586.759 C 423.394 563.509 447.099 544.473 465.895 525.872 C 486.172 505.742 506.34 485.503 526.399 465.156 z" fill="rgb(0,237,197)" transform="translate(0,0)"></path>
<path d="M 526.399 465.156 C 536.583 473.695 547.234 485.47 556.582 495.229 L 555.707 496.39 C 548.991 505.189 537.124 516.825 529.129 525.074 C 513.113 541.564 496.995 557.955 480.775 574.245 C 463.009 592.159 443.715 609.547 433.929 633.396 C 427.324 649.494 426.463 666.197 428.616 683.318 C 441.982 789.613 582.76 964.199 653.169 1048.74 C 680.453 1081.5 707.52 1114.82 737.576 1145.12 C 743.246 1150.84 760.222 1167.17 763.068 1172.89 C 761.889 1173.61 762.654 1173.31 760.636 1173.29 C 753.135 1166.44 745.556 1158.15 738.491 1150.75 C 640.488 1048.48 398.738 777.917 397.792 637.997 C 397.671 619.994 401.522 602.51 410.356 586.759 C 423.394 563.509 447.099 544.473 465.895 525.872 C 486.172 505.742 506.34 485.503 526.399 465.156 z" fill="rgb(255,255,255)" transform="translate(0,0)"></path>
<path d="M 873.977 1286.25 C 887.543 1271.46 907.936 1253.1 922.805 1238.22 C 958.133 1202.87 993.017 1165.84 1028.73 1131.02 C 1033.65 1135.71 1038.85 1141.25 1043.66 1146.16 C 1079.51 1183.44 1115.79 1220.31 1152.48 1256.77 C 1173.34 1277.69 1209.72 1319.35 1233.95 1331.78 C 1238.61 1333.23 1245.73 1334.14 1250.58 1334.07 C 1259.73 1333.89 1268.68 1331.32 1276.53 1326.62 C 1288.55 1319.54 1321.9 1283.83 1333.87 1271.57 L 1366.62 1303.71 C 1414.13 1349.27 1459.12 1399.03 1505.99 1445.38 C 1532.61 1471.7 1557.84 1501.2 1585.99 1525.95 C 1575.25 1537.83 1547.46 1564.81 1535.86 1575.79 C 1523.94 1587.08 1472.53 1641.84 1462.98 1646.38 C 1446.46 1655.44 1428.27 1660.11 1409.38 1659.13 C 1346.58 1655.89 1224.94 1576.81 1171.96 1539.26 C 1133.98 1512.12 1096.96 1483.67 1060.95 1453.98 C 1047.12 1442.79 1011.89 1415.49 1000.77 1403.17 C 991.301 1396.3 970.103 1376.12 960.525 1367.47 C 957.117 1365.31 941.931 1350.96 938.006 1347.29 C 921.162 1331.55 903.671 1315.91 887.311 1299.72 L 873.977 1286.25 z" fill="rgb(0,237,197)" transform="translate(0,0)"></path>
<path d="M 960.525 1367.47 C 964.971 1367.62 1001.66 1399.6 1007.87 1404.75 C 1106.51 1478.12 1283.14 1614.36 1402.52 1642.22 C 1416.45 1645.37 1430.7 1646.92 1444.98 1646.83 C 1448.96 1646.83 1459.95 1646.15 1462.98 1646.38 C 1446.46 1655.44 1428.27 1660.11 1409.38 1659.13 C 1346.58 1655.89 1224.94 1576.81 1171.96 1539.26 C 1133.98 1512.12 1096.96 1483.67 1060.95 1453.98 C 1047.12 1442.79 1011.89 1415.49 1000.77 1403.17 C 991.301 1396.3 970.103 1376.12 960.525 1367.47 z" fill="rgb(255,255,255)" transform="translate(0,0)"></path>
<path d="M 1233.95 1331.78 C 1238.61 1333.23 1245.73 1334.14 1250.58 1334.07 C 1259.73 1333.89 1268.68 1331.32 1276.53 1326.62 C 1288.55 1319.54 1321.9 1283.83 1333.87 1271.57 L 1366.62 1303.71 C 1355.01 1319.7 1324.4 1347.47 1309.15 1361.31 C 1288.35 1380.2 1246.94 1352.09 1233.95 1331.78 z" fill="rgb(255,255,255)" transform="translate(0,0)"></path>
<path d="M 469.224 1499.81 C 476.393 1491.62 485.294 1483.53 493.078 1475.78 L 547.286 1422.15 L 713.1 1257.21 L 1277.6 692.21 C 1340.89 628.028 1405.47 565.066 1468.39 500.505 C 1478.64 489.987 1489.01 480.324 1498.92 469.328 C 1512.25 481.618 1526 495.786 1538.95 508.627 C 1550.98 521.068 1565.71 535.548 1576.9 548.434 C 1526.61 601.144 1474.14 651.108 1422.94 702.621 L 1034.42 1092.09 L 693.481 1433.1 L 607.09 1520.05 C 588.528 1538.86 567.858 1560.35 548.548 1578.16 C 534.858 1565.03 522.22 1552.69 509.254 1538.85 C 496.183 1525.56 482.837 1512.54 469.224 1499.81 z" fill="rgb(255,255,255)" transform="translate(0,0)"></path>
<path d="M 1538.95 508.627 C 1550.98 521.068 1565.71 535.548 1576.9 548.434 C 1526.61 601.144 1474.14 651.108 1422.94 702.621 L 1034.42 1092.09 L 693.481 1433.1 L 607.09 1520.05 C 588.528 1538.86 567.858 1560.35 548.548 1578.16 C 534.858 1565.03 522.22 1552.69 509.254 1538.85 C 566.454 1483.64 623.118 1427.88 679.239 1371.57 L 809.662 1238.9 L 1276.88 772.746 L 1482.45 567.037 C 1495.29 554.288 1508 541.407 1520.58 528.397 C 1526.75 521.912 1532.53 514.667 1538.95 508.627 z" fill="rgb(207,254,241)" transform="translate(0,0)"></path>
<path d="M 542.499 448.685 C 570.487 419.155 589.287 387.558 628.805 423.838 C 645.985 440.461 661.985 458.598 679.047 475.301 C 722.508 517.741 765.46 560.62 809.236 602.747 C 818.667 611.823 840.026 630.556 840.136 643.508 C 840.316 664.826 812.078 688.374 797.34 702.288 C 743.779 645.322 685.415 592.562 631.022 536.293 C 612.569 517.203 592.158 498.749 574.367 479.13 C 563.528 469.162 553.738 458.63 542.499 448.685 z" fill="rgb(0,237,197)" transform="translate(0,0)"></path>
<path d="M 542.499 448.685 C 570.487 419.155 589.287 387.558 628.805 423.838 C 624.407 429.734 616.372 436.966 610.95 442.478 C 598.89 454.74 586.233 466.685 574.367 479.13 C 563.528 469.162 553.738 458.63 542.499 448.685 z" fill="rgb(255,255,255)" transform="translate(0,0)"></path>
<path d="M 1350.4 1254.86 L 1351.15 1254.09 C 1378.54 1226.23 1401.2 1195.77 1438 1234.52 C 1453.94 1252.96 1480.53 1278 1498.11 1295.42 C 1528.52 1325.37 1558.62 1355.61 1588.43 1386.16 C 1605.22 1403.16 1622.09 1419.77 1637.67 1437.89 C 1660.69 1464.65 1622.65 1492.51 1604.25 1509.89 C 1530.22 1437.09 1457.17 1363.3 1385.11 1288.55 C 1373.74 1277.25 1361.93 1266.02 1350.4 1254.86 z" fill="rgb(0,237,197)" transform="translate(0,0)"></path>
<path d="M 1350.4 1254.86 L 1351.15 1254.09 C 1378.54 1226.23 1401.2 1195.77 1438 1234.52 C 1426.91 1245.7 1393.17 1278.05 1385.11 1288.55 C 1373.74 1277.25 1361.93 1266.02 1350.4 1254.86 z" fill="rgb(255,255,255)" transform="translate(0,0)"></path>
<metadata><recraft-signature>{"signed_by": "recraft", "signature_b64": "VfxVX4WJF8hVkt6S4ivRcfUMCVXOc04hKHtGefnOshhrq9NnGPNzfAnYrwoAR0WFQNCG5X/2aYF8nvM9Q4CFAw==", "signing_algo": "Ed25519", "generation_timestamp": 1781650123, "identifier": "ccec483b-d147-426a-af07-b7cc63e39351"}</recraft-signature></metadata></svg>