<svg xmlns="http://www.w3.org/2000/svg" height="1820" preserveAspectRatio="none" style="display: block;" version="1.1" viewBox="0 0 1152 2048" width="1024">
<defs>
	<linearGradient gradientUnits="userSpaceOnUse" id="Gradient1" x1="867.473" x2="817.758" y1="1171.87" y2="1160.13">
		<stop class="stop0" offset="0" stop-color="rgb(190,222,214)" stop-opacity="1"></stop>
		<stop class="stop1" offset="1" stop-color="rgb(241,250,247)" stop-opacity="1"></stop>
	</linearGradient>
</defs>
<path d="M 0 0 L 1152 0 L 1152 2048 L 0 2048 L 0 0 z" fill="rgb(255,255,255)" transform="translate(0,0)"></path>
<path d="M 391.944 1028.45 C 368.499 1015.75 346.585 1000.41 326.631 982.723 C 260.303 923.347 220.157 840.144 214.955 751.275 C 209.246 660.21 239.807 570.587 299.961 501.981 C 359.334 434.518 443.012 393.318 532.686 387.396 C 626.077 381.63 710.91 408.613 781.106 470.501 C 789.975 460.895 808.368 429.125 823.633 443.607 C 847.293 466.055 870.52 489.285 893.468 512.523 C 896.902 516 899.625 521.865 897.726 527.84 C 875.638 555.539 851.652 582.913 828.921 610.119 L 649.143 822.788 L 596.117 885.548 C 589.878 893.067 573.334 914.888 567.045 920.042 C 562.12 920.317 557.774 919.992 552.884 919.704 C 553.345 922.018 569.19 940.84 572.164 944.624 C 615.486 895.714 657.803 843.365 700.207 793.483 C 753.751 731.563 806.717 669.144 859.097 606.236 C 853.44 594.09 855.357 581.54 870.347 589.287 L 874.697 598.033 C 878.446 607.893 882.065 617.803 885.551 627.759 C 890.083 636.64 894.422 649.634 897.325 659.326 C 933.664 780.636 897.561 918.859 798.481 999.888 C 791.996 1005.19 776.845 1019.08 768.863 1017.21 C 760.89 1012.03 764.815 1003.69 763.724 996.033 C 756.227 992.388 755.94 991.135 755.933 983.23 C 754.899 979.82 748.892 968.944 746.877 965.773 C 746.155 941.273 751.837 914.274 732.552 895.899 C 714.449 878.65 686.372 878.896 669.344 897.269 C 664.374 902.66 660.912 909.266 659.307 916.421 C 656.842 927.239 657.936 940.965 657.765 952.242 C 657.462 972.326 658.461 993.502 657.787 1013.51 C 657.021 1003.73 657.098 994.664 657.111 984.885 C 627.974 1002.25 620.384 1026.17 619.732 1058.47 C 619.31 1079.3 619.35 1100.09 619.442 1120.94 L 619.871 1218.94 C 620.047 1233.93 620.459 1250.39 620.064 1265.39 C 619.98 1268.57 617.951 1272.45 615.328 1274.52 C 604.369 1276.14 605.56 1259.09 605.691 1252.46 C 598.209 1257.59 592.952 1260.3 586.733 1251.55 C 580.923 1243.38 576.597 1234.92 569.886 1227.33 C 564.117 1220.79 557.085 1215.48 549.212 1211.72 C 529.007 1202.01 509.461 1203.41 488.939 1210.65 C 501.266 1231.63 518.138 1256.41 531.578 1277.17 L 609.756 1397.62 C 616.277 1407.63 650.18 1457.85 652.35 1466.02 C 651.612 1469.6 651.57 1470.56 649.051 1473.39 C 638.299 1479.93 629.56 1459.81 624.823 1452.48 L 594.182 1405.29 L 501.649 1262.92 C 492.044 1248.1 482.441 1233.32 472.916 1218.43 C 463.215 1203.26 474.73 1197.88 488.216 1193.13 C 525.909 1179.84 562.565 1191.42 588.098 1221.5 C 587.676 1183.42 588.097 1144.56 588.214 1106.42 C 587.866 1101.68 588.042 1095.07 588.025 1090.18 C 524.475 1090.28 472.63 1079.94 417.393 1045.87 C 410.274 1041.48 398.005 1033.65 391.944 1028.45 z" fill="rgb(108,248,205)" transform="translate(0,0)"></path>
<path d="M 391.944 1028.45 C 368.499 1015.75 346.585 1000.41 326.631 982.723 C 260.303 923.347 220.157 840.144 214.955 751.275 C 209.246 660.21 239.807 570.587 299.961 501.981 C 359.334 434.518 443.012 393.318 532.686 387.396 C 626.077 381.63 710.91 408.613 781.106 470.501 C 789.975 460.895 808.368 429.125 823.633 443.607 C 847.293 466.055 870.52 489.285 893.468 512.523 C 896.902 516 899.625 521.865 897.726 527.84 C 875.638 555.539 851.652 582.913 828.921 610.119 L 649.143 822.788 L 596.117 885.548 C 589.878 893.067 573.334 914.888 567.045 920.042 C 562.12 920.317 557.774 919.992 552.884 919.704 C 548.735 917.8 536.3 901.287 532.407 896.686 C 515.909 877.187 499.62 857.511 483.544 837.662 C 451.136 798.433 418.484 759.374 385.971 720.228 C 381.081 715.866 383.067 708.965 387.505 703.913 C 408.797 679.674 428.061 653.237 449.467 629.169 C 453.898 624.186 460.756 623.103 465.559 628.068 C 476.331 639.204 486.159 651.492 496.169 663.371 L 558.428 737.458 C 606.37 677.257 660.942 614.117 710.661 554.753 L 751.535 505.762 C 755.865 500.592 766.929 488.52 769.851 483.926 L 768.794 482.72 C 764.743 481.841 752.339 471.128 748.065 468.131 C 651.376 400.319 512.525 404.268 411.947 458.629 C 332.607 500.955 273.511 573.278 247.845 659.461 C 237.145 695.356 234.439 736.424 237.193 773.834 C 237.876 783.113 242.231 802.382 241.515 810.135 C 245.668 828.741 255.089 852.446 263.052 869.432 C 314.233 978.48 430.747 1052.92 551.365 1051.86 C 558.759 1051.79 576.241 1052.57 571.412 1064.44 C 568.276 1072.14 546.763 1070.21 540.042 1069.9 C 501.93 1068.03 464.382 1059.92 428.897 1045.89 C 416.121 1040.83 402.511 1032.53 391.944 1028.45 z" fill="rgb(0,34,49)" transform="translate(0,0)"></path>
<path d="M 241.515 810.135 C 234.543 786.352 231.753 752.613 231.731 727.972 C 231.756 641.352 266.578 558.374 328.375 497.677 C 389.613 436.548 472.785 402.495 559.31 403.127 C 630.178 403.343 718.375 431.883 768.794 482.72 C 764.743 481.841 752.339 471.128 748.065 468.131 C 651.376 400.319 512.525 404.268 411.947 458.629 C 332.607 500.955 273.511 573.278 247.845 659.461 C 237.145 695.356 234.439 736.424 237.193 773.834 C 237.876 783.113 242.231 802.382 241.515 810.135 z" fill="rgb(255,255,255)" transform="translate(0,0)"></path>
<path d="M 814.11 458.056 L 824.705 468.187 L 833.765 477.258 L 880.237 523.497 C 862.698 541.606 839.413 570.211 822.83 589.958 L 736.64 692.216 L 610.721 840.417 C 594.322 860 574.848 882.222 559.348 902.284 L 420.042 734.358 C 416.396 730.974 405.693 718.072 401.847 713.68 C 420.921 691.233 439.77 668.596 458.39 645.771 C 464.382 652.135 470.073 659.183 475.677 665.926 C 501.01 695.562 525.342 725.974 551.027 755.251 C 553.896 758.521 559.383 757.685 563.091 756.634 C 585.283 732.502 604.145 709.015 625.069 683.894 L 693.735 601.763 C 707.082 585.544 720.623 569.486 734.354 553.592 C 738.905 548.255 746.898 537.794 751.388 533.491 C 754.898 528.25 766.174 515.384 770.711 509.955 C 785.308 492.765 799.774 475.464 814.11 458.056 z" fill="rgb(255,255,255)" transform="translate(0,0)"></path>
<path d="M 814.11 458.056 L 824.705 468.187 L 833.765 477.258 L 655.817 689.895 C 631.159 719.297 605.291 751.399 580.22 780.127 C 576.105 775.187 564.014 762.024 563.091 756.634 C 585.283 732.502 604.145 709.015 625.069 683.894 L 693.735 601.763 C 707.082 585.544 720.623 569.486 734.354 553.592 C 738.905 548.255 746.898 537.794 751.388 533.491 C 754.898 528.25 766.174 515.384 770.711 509.955 C 785.308 492.765 799.774 475.464 814.11 458.056 z" fill="rgb(108,248,205)" transform="translate(0,0)"></path>
<path d="M 814.11 458.056 L 824.705 468.187 C 815.917 475.775 755.626 532.556 751.388 533.491 C 754.898 528.25 766.174 515.384 770.711 509.955 C 785.308 492.765 799.774 475.464 814.11 458.056 z" fill="rgb(255,255,255)" transform="translate(0,0)"></path>
<path d="M 458.39 645.771 C 464.382 652.135 470.073 659.183 475.677 665.926 C 464.99 679.232 454.183 692.441 443.257 705.552 C 435.646 714.588 426.472 724.608 420.042 734.358 C 416.396 730.974 405.693 718.072 401.847 713.68 C 420.921 691.233 439.77 668.596 458.39 645.771 z" fill="rgb(108,248,205)" transform="translate(0,0)"></path>
<path d="M 859.097 606.236 C 853.44 594.09 855.357 581.54 870.347 589.287 L 874.697 598.033 C 878.446 607.893 882.065 617.803 885.551 627.759 C 890.083 636.64 894.422 649.634 897.325 659.326 C 933.664 780.636 897.561 918.859 798.481 999.888 C 791.996 1005.19 776.845 1019.08 768.863 1017.21 C 760.89 1012.03 764.815 1003.69 763.724 996.033 C 756.227 992.388 755.94 991.135 755.933 983.23 L 756.618 982.451 C 757.836 968.72 759.028 939.172 752.663 927.542 C 763.991 914.859 777.355 900.925 787.087 887.079 C 820.466 839.588 840.008 771.913 846.997 714.456 C 851.901 674.13 848.904 657.745 863.06 617.596 L 859.097 606.236 z" fill="rgb(0,34,49)" transform="translate(0,0)"></path>
<path d="M 863.06 617.596 C 891.722 704.463 889.013 792.434 847.505 874.704 C 832.387 904.923 812.023 932.217 787.362 955.316 C 777.213 964.843 766.627 973.261 756.618 982.451 C 757.836 968.72 759.028 939.172 752.663 927.542 C 763.991 914.859 777.355 900.925 787.087 887.079 C 820.466 839.588 840.008 771.913 846.997 714.456 C 851.901 674.13 848.904 657.745 863.06 617.596 z" fill="rgb(0,237,197)" transform="translate(0,0)"></path>
<path d="M 885.551 627.759 C 890.083 636.64 894.422 649.634 897.325 659.326 C 933.664 780.636 897.561 918.859 798.481 999.888 C 791.996 1005.19 776.845 1019.08 768.863 1017.21 C 760.89 1012.03 764.815 1003.69 763.724 996.033 C 788.93 985.684 831.921 934.797 846.902 911.326 C 892.507 839.87 908.146 758.987 896.076 675.173 C 893.468 657.066 889.137 644.706 885.551 627.759 z" fill="rgb(0,237,197)" transform="translate(0,0)"></path>
<path d="M 588.214 1106.42 C 592.259 1058.24 573.849 995.528 617.275 961.076 C 624.421 953.831 642.42 944.842 640.822 963.241 C 640.358 968.586 625.96 976.207 621.619 980.855 C 613.322 989.741 606.904 1002.91 606.323 1015.63 C 605.189 1040.46 605.597 1065.54 605.649 1090.45 L 605.636 1201.4 C 605.612 1217.79 606.145 1236.26 605.691 1252.46 C 598.209 1257.59 592.952 1260.3 586.733 1251.55 C 580.923 1243.38 576.597 1234.92 569.886 1227.33 C 564.117 1220.79 557.085 1215.48 549.212 1211.72 C 529.007 1202.01 509.461 1203.41 488.939 1210.65 C 501.266 1231.63 518.138 1256.41 531.578 1277.17 L 609.756 1397.62 C 616.277 1407.63 650.18 1457.85 652.35 1466.02 C 651.612 1469.6 651.57 1470.56 649.051 1473.39 C 638.299 1479.93 629.56 1459.81 624.823 1452.48 L 594.182 1405.29 L 501.649 1262.92 C 492.044 1248.1 482.441 1233.32 472.916 1218.43 C 463.215 1203.26 474.73 1197.88 488.216 1193.13 C 525.909 1179.84 562.565 1191.42 588.098 1221.5 C 587.676 1183.42 588.097 1144.56 588.214 1106.42 z" fill="rgb(0,34,49)" transform="translate(0,0)"></path>
<path d="M 723.787 1442.93 C 710.972 1432.57 701.865 1420.57 698.478 1404.04 C 695.127 1388.17 698.403 1371.62 707.547 1358.22 C 717.39 1343.81 732.554 1333.9 749.702 1330.67 C 789.517 1323.1 821.604 1347.41 828.962 1386.77 C 844.059 1408.27 842.794 1432.81 825.05 1452.26 C 849.349 1465.39 861.233 1476.87 877.393 1499.68 C 913.883 1533.87 908.724 1587.93 909.049 1632.99 C 909.09 1638.7 909.783 1649.36 907.065 1654.36 C 890.168 1662.8 708.201 1652.5 677.441 1656.41 C 659.584 1658.67 660.829 1650.51 660.99 1636.63 C 653.091 1636.87 644.955 1637.38 637.138 1636.43 C 627.271 1629.54 631.623 1610.96 631.329 1599.63 C 630.346 1561.69 629.55 1532.2 649.703 1498.52 C 666.17 1471.01 692.769 1451.05 723.787 1442.93 z" fill="rgb(0,34,49)" transform="translate(0,0)"></path>
<path d="M 877.393 1499.68 C 913.883 1533.87 908.724 1587.93 909.049 1632.99 C 909.09 1638.7 909.783 1649.36 907.065 1654.36 C 890.168 1662.8 708.201 1652.5 677.441 1656.41 C 659.584 1658.67 660.829 1650.51 660.99 1636.63 C 653.091 1636.87 644.955 1637.38 637.138 1636.43 C 654.197 1635.17 683.251 1635.97 700.883 1635.95 L 824.921 1635.96 C 838.2 1635.97 879.436 1637.35 889.134 1633.92 C 890.128 1632.94 890.71 1632.18 891.248 1630.87 C 895.584 1620.31 893.667 1548.1 890.437 1533.37 C 887.843 1521.54 882.5 1510.58 877.393 1499.68 z" fill="rgb(108,248,205)" transform="translate(0,0)"></path>
<path d="M 828.962 1386.77 C 844.059 1408.27 842.794 1432.81 825.05 1452.26 C 816.458 1448.31 811.548 1446.17 802.391 1444.07 C 820.892 1425.75 828.105 1413.35 828.962 1386.77 z" fill="rgb(108,248,205)" transform="translate(0,0)"></path>
<path d="M 660.592 1618.92 C 647.16 1619.53 648.02 1616.2 648.253 1604.04 C 648.949 1567.77 644.8 1537.99 665.715 1505.88 C 681.614 1481.16 706.814 1463.91 735.604 1458.03 C 767.17 1451.55 802.102 1456.82 829.164 1474.76 C 883.307 1512.38 875.228 1559.78 875.853 1618.19 C 804.014 1619.16 732.428 1618.34 660.592 1618.92 z" fill="rgb(108,248,205)" transform="translate(0,0)"></path>
<path d="M 660.592 1618.92 C 647.16 1619.53 648.02 1616.2 648.253 1604.04 C 648.949 1567.77 644.8 1537.99 665.715 1505.88 C 681.614 1481.16 706.814 1463.91 735.604 1458.03 C 767.17 1451.55 802.102 1456.82 829.164 1474.76 C 823.632 1474.77 816.584 1472.32 810.925 1471.28 C 735.531 1457.47 663.428 1514.14 660.939 1591.02 C 660.712 1600.32 660.597 1609.62 660.592 1618.92 z" fill="rgb(255,255,255)" transform="translate(0,0)"></path>
<path d="M 735.527 1428.79 C 723.544 1422.29 715.959 1407.41 715.178 1394.11 C 714.428 1382.44 718.544 1370.98 726.548 1362.45 C 735.702 1352.59 748.477 1346.88 761.931 1346.63 C 787.887 1346.04 810.303 1364.24 811.03 1390.95 C 809.793 1430.12 767.703 1451.68 735.527 1428.79 z" fill="rgb(108,248,205)" transform="translate(0,0)"></path>
<path d="M 735.527 1428.79 C 723.544 1422.29 715.959 1407.41 715.178 1394.11 C 714.428 1382.44 718.544 1370.98 726.548 1362.45 C 735.702 1352.59 748.477 1346.88 761.931 1346.63 C 787.887 1346.04 810.303 1364.24 811.03 1390.95 C 786.683 1356.13 729.052 1371.41 730.527 1414.86 C 730.667 1418.98 734.588 1424.83 735.527 1428.79 z" fill="rgb(255,255,255)" transform="translate(0,0)"></path>
<path d="M 657.787 1013.51 C 658.461 993.502 657.462 972.326 657.765 952.242 C 657.936 940.965 656.842 927.239 659.307 916.421 C 660.912 909.266 664.374 902.66 669.344 897.269 C 686.372 878.896 714.449 878.65 732.552 895.899 C 751.837 914.274 746.155 941.273 746.877 965.773 L 746.894 1039.87 C 786.037 1045.47 811.212 1064 822.238 1103.1 C 852.637 1098.24 881.83 1111.75 897.576 1138.62 C 898.739 1140.6 902.028 1146.69 903.299 1148.13 C 910.326 1169.19 908.266 1193.59 908.216 1215.78 L 908.067 1293.47 L 907.929 1344.47 C 907.909 1350.17 908.279 1370.03 906.857 1374.49 C 902.32 1388.72 894.723 1404.46 888.794 1418.36 C 885.318 1426.51 873.135 1459.35 868.706 1462.4 L 864.786 1463.02 C 862.399 1461.52 858.51 1459.31 857.115 1456.82 C 852.519 1448.62 885.899 1385.14 889.625 1371.38 C 891.952 1362.78 892.476 1182.54 890.647 1167.69 C 889.576 1158.99 885.714 1151.88 881.383 1144.45 C 873.991 1142.3 846.246 1133.88 843.708 1145.69 C 840.758 1159.42 847.037 1200.57 838.502 1210.19 C 824.828 1216.16 828.306 1194.21 825.196 1189.29 C 820.091 1195.35 810.806 1197.83 809.278 1188.29 C 803.813 1154.16 816.738 1119.19 796.841 1087.9 C 793.195 1082.21 792.093 1080.55 787.255 1075.68 C 785.826 1074.27 784.23 1072.98 782.696 1071.68 C 771.992 1063.39 760.406 1058.95 746.918 1057.68 L 746.93 1142.48 C 746.931 1151.65 748.787 1187.34 743.507 1192.63 C 742.517 1193.63 741.186 1194.22 739.781 1194.27 C 734.482 1194.53 731.78 1191.26 729.311 1187.33 C 727.332 1179.92 728.782 1133.72 728.775 1122.8 L 728.703 928.872 C 717.886 929.015 696.564 930.436 694.315 945.451 C 691.929 961.377 693.054 981.55 693.04 997.912 L 692.687 1137.41 C 692.73 1159.64 693.444 1182.91 691.989 1205.05 C 691.69 1209.6 687.146 1211.97 682.953 1210.15 C 673.1 1205.88 679.824 1193.35 675.519 1185.89 C 669.973 1197.04 658.193 1197.29 657.893 1184.23 C 657.473 1165.93 657.743 1147.46 657.758 1129.14 L 657.787 1013.51 z" fill="rgb(0,34,49)" transform="translate(0,0)"></path>
<path d="M 675.519 1185.89 C 674.267 1180.98 674.724 1157.43 674.737 1151.06 L 674.959 1076.6 L 674.578 979.519 C 674.54 966.186 672.457 924.535 678.691 914.24 C 682.581 907.842 688.866 903.263 696.149 901.522 C 709.347 898.453 727.233 908.891 728.974 922.491 C 730.865 937.259 729.894 954.845 729.893 969.988 L 729.937 1065.39 L 729.959 1146.89 C 729.96 1155.82 730.477 1179.96 729.311 1187.33 C 727.332 1179.92 728.782 1133.72 728.775 1122.8 L 728.703 928.872 C 717.886 929.015 696.564 930.436 694.315 945.451 C 691.929 961.377 693.054 981.55 693.04 997.912 L 692.687 1137.41 C 692.73 1159.64 693.444 1182.91 691.989 1205.05 C 691.69 1209.6 687.146 1211.97 682.953 1210.15 C 673.1 1205.88 679.824 1193.35 675.519 1185.89 z" fill="rgb(207,254,241)" transform="translate(0,0)"></path>
<path d="M 824.935 1119.06 C 850.337 1117.78 866.125 1124.11 881.383 1144.45 C 873.991 1142.3 846.246 1133.88 843.708 1145.69 C 840.758 1159.42 847.037 1200.57 838.502 1210.19 C 824.828 1216.16 828.306 1194.21 825.196 1189.29 C 824.755 1185 825.174 1171.16 825.199 1166.28 C 825.367 1150.54 825.279 1134.79 824.935 1119.06 z" fill="url(#Gradient1)" transform="translate(0,0)"></path>
<path d="M 753.426 1067.57 C 761.273 1068.31 777.437 1073.4 782.696 1071.68 C 784.23 1072.98 785.826 1074.27 787.255 1075.68 C 792.093 1080.55 793.195 1082.21 796.841 1087.9 C 787.443 1083.84 779.895 1082.9 769.909 1081.44 L 767.127 1082.33 C 763.465 1089.63 766.619 1118.58 765.576 1127.42 C 763.941 1141.27 769.481 1204.47 761.242 1211.03 C 760.072 1211.32 758.824 1211.63 757.622 1211.37 C 755.704 1210.96 754.041 1209.57 752.994 1207.95 C 748.733 1201.36 749.809 1083.19 753.426 1067.57 z" fill="rgb(207,254,241)" transform="translate(0,0)"></path>
<path d="M 769.909 1081.44 L 766.961 1080.43 C 766.126 1077.42 766.092 1078.64 766.954 1075.77 C 771.264 1072.54 781.518 1075.55 787.255 1075.68 C 792.093 1080.55 793.195 1082.21 796.841 1087.9 C 787.443 1083.84 779.895 1082.9 769.909 1081.44 z" fill="rgb(108,248,205)" transform="translate(0,0)"></path>
<path d="M 870.347 589.287 C 875.774 583.579 900.703 552.766 904.227 551.148 L 906.675 551.625 C 910.627 560.104 880.426 590.059 874.697 598.033 L 870.347 589.287 z" fill="rgb(108,248,205)" transform="translate(0,0)"></path>
<metadata><recraft-signature>{"signed_by": "recraft", "signature_b64": "a3ws9SuVcx1rX44gFU4ImGo23BAef1t5t0DVcXGIcNHTYPIoCdAqbgGOv43RyB7Nl4/c6k4RCloab/Ypb2vHAw==", "signing_algo": "Ed25519", "generation_timestamp": 1781648980, "identifier": "f965034d-401e-4e8d-bdcf-2eaf3627d7ea"}</recraft-signature></metadata></svg>