<svg xmlns="http://www.w3.org/2000/svg" height="1024" preserveAspectRatio="none" style="display: block;" version="1.1" viewBox="0 0 2048 2048" width="1024">
<defs>
	<linearGradient gradientUnits="userSpaceOnUse" id="Gradient1" x1="983.255" x2="981.792" y1="510.54" y2="501.696">
		<stop class="stop0" offset="0" stop-color="rgb(226,254,250)" stop-opacity="1"></stop>
		<stop class="stop1" offset="1" stop-color="rgb(255,255,255)" stop-opacity="1"></stop>
	</linearGradient>
</defs>
<path d="M 0 0 L 2048 0 L 2048 2048 L 0 2048 L 0 0 z" fill="rgb(255,255,255)" transform="translate(0,0)"></path>
<path d="M 1393.53 924.16 C 1386.77 916.853 1380.96 910.759 1374.94 901.558 C 1334.45 839.68 1363.44 708.521 1455.28 724.323 C 1478.98 728.401 1495.66 748.405 1508.25 769.087 C 1524.57 779.629 1535.85 808.369 1539.99 826.579 C 1547.23 858.449 1544.6 900.532 1521.15 925.813 C 1561.36 941.414 1584.74 956.431 1609.32 991.32 C 1635.74 1017.59 1639.35 1036.79 1643.58 1072.67 C 1650.62 1132.25 1660.9 1191.04 1671.63 1250.02 C 1674.98 1268.4 1678.75 1286.12 1679.35 1304.89 C 1673.09 1319.39 1653.04 1326.65 1638.58 1320.51 C 1630.79 1317.2 1627.25 1305.28 1624.66 1297.63 C 1594.64 1296.03 1594.19 1268.05 1585.37 1243.08 C 1584.19 1245.73 1581.63 1271.2 1581.06 1276.77 C 1579.15 1295.53 1573.78 1316.75 1573.35 1335.2 C 1573.29 1337.75 1578.74 1357.55 1579.77 1361.18 C 1584.81 1378.8 1590.01 1396.37 1595.38 1413.9 C 1601.05 1433.06 1605.41 1451.09 1610.63 1470.15 L 1640.74 1576.92 C 1650.74 1612.2 1662.15 1647.87 1669.08 1683.88 C 1672.47 1701.48 1640.38 1702.27 1629.42 1702.76 C 1598.13 1704.15 1593.35 1705.66 1580.65 1676.25 C 1548.68 1676.23 1547.44 1658.93 1535.92 1634.44 C 1528.73 1619.16 1522.73 1603.25 1516.24 1587.68 C 1494.82 1536.91 1473.94 1485.93 1453.61 1434.73 L 1452.75 1436.54 C 1446.66 1449.78 1439.05 1479.21 1433.59 1494.74 C 1416.79 1542.92 1402.44 1592 1385.32 1640.06 C 1379.49 1654.18 1375.04 1674.02 1367.34 1686.87 C 1354.18 1708.82 1316.77 1706.72 1295.96 1698.85 C 1284.57 1694.55 1283.22 1684.61 1282.91 1674.11 C 1245.04 1668.32 1249.53 1663.64 1254.91 1628.99 L 1262.41 1581.31 C 1274.04 1507.91 1289.09 1433.79 1300.72 1360.32 C 1304.14 1338.73 1311.31 1309.45 1313.78 1288.74 C 1315.71 1272.5 1311.31 1234.91 1310.92 1215.96 C 1294.5 1235.8 1276.79 1255.15 1259.75 1274.65 C 1248.69 1287.31 1232.74 1314.53 1215.03 1316.02 C 1198.79 1317.39 1187.12 1307.01 1182.82 1291.63 C 1168.98 1289.25 1154.97 1285.15 1148.84 1270.74 C 1146.45 1265.11 1144.23 1253.94 1147.04 1248.16 C 1156.48 1228.79 1168.75 1210.41 1180.1 1192.05 L 1226.83 1115.46 C 1249.81 1077.76 1271.63 1039.28 1295.96 1002.3 C 1304.75 988.947 1315.25 968.329 1325.93 957.346 C 1344.64 938.102 1368.65 932.117 1393.53 924.16 z" fill="rgb(0,34,49)" transform="translate(0,0)"></path>
<path d="M 1438.07 1392.12 C 1443.34 1406.16 1448.94 1420.52 1453.61 1434.73 L 1452.75 1436.54 C 1446.66 1449.78 1439.05 1479.21 1433.59 1494.74 C 1416.79 1542.92 1402.44 1592 1385.32 1640.06 C 1379.49 1654.18 1375.04 1674.02 1367.34 1686.87 C 1354.18 1708.82 1316.77 1706.72 1295.96 1698.85 C 1284.57 1694.55 1283.22 1684.61 1282.91 1674.11 C 1342.29 1686.74 1347.11 1666.53 1363.07 1617.22 L 1381.44 1560.76 L 1438.07 1392.12 z" fill="rgb(0,237,197)" transform="translate(0,0)"></path>
<path d="M 1568.4 1190.02 C 1574.22 1207.65 1579.88 1225.34 1585.37 1243.08 C 1584.19 1245.73 1581.63 1271.2 1581.06 1276.77 C 1579.15 1295.53 1573.78 1316.75 1573.35 1335.2 C 1573.29 1337.75 1578.74 1357.55 1579.77 1361.18 C 1584.81 1378.8 1590.01 1396.37 1595.38 1413.9 C 1601.05 1433.06 1605.41 1451.09 1610.63 1470.15 L 1640.74 1576.92 C 1650.74 1612.2 1662.15 1647.87 1669.08 1683.88 C 1672.47 1701.48 1640.38 1702.27 1629.42 1702.76 C 1598.13 1704.15 1593.35 1705.66 1580.65 1676.25 C 1643.65 1673.22 1662.07 1687.22 1637.97 1610.88 C 1634.51 1599.95 1631.14 1587.55 1627.95 1576.46 L 1576.45 1390.42 C 1571.28 1372.02 1551.65 1315.59 1552.49 1300.72 C 1553.91 1275.54 1563.1 1214.94 1568.4 1190.02 z" fill="rgb(0,237,197)" transform="translate(0,0)"></path>
<path d="M 1609.32 991.32 C 1635.74 1017.59 1639.35 1036.79 1643.58 1072.67 C 1650.62 1132.25 1660.9 1191.04 1671.63 1250.02 C 1674.98 1268.4 1678.75 1286.12 1679.35 1304.89 C 1673.09 1319.39 1653.04 1326.65 1638.58 1320.51 C 1630.79 1317.2 1627.25 1305.28 1624.66 1297.63 C 1646.47 1295.73 1659.04 1287.69 1656.02 1264.08 C 1651.33 1227.4 1644.83 1191.01 1639.52 1154.43 C 1635.23 1123.04 1630.62 1091.7 1625.68 1060.41 C 1621.44 1033.16 1620.54 1016.82 1609.32 991.32 z" fill="rgb(0,237,197)" transform="translate(0,0)"></path>
<path d="M 1182.82 1291.63 C 1189.52 1291.73 1197.34 1290.68 1202.46 1285.8 C 1212.93 1275.82 1222.16 1264.1 1231.85 1253.27 L 1307.87 1168.05 C 1309.6 1181.53 1310.49 1202.23 1310.92 1215.96 C 1294.5 1235.8 1276.79 1255.15 1259.75 1274.65 C 1248.69 1287.31 1232.74 1314.53 1215.03 1316.02 C 1198.79 1317.39 1187.12 1307.01 1182.82 1291.63 z" fill="rgb(0,237,197)" transform="translate(0,0)"></path>
<path d="M 1508.25 769.087 C 1524.57 779.629 1535.85 808.369 1539.99 826.579 C 1547.23 858.449 1544.6 900.532 1521.15 925.813 C 1515.73 923.225 1504.44 919.616 1498.04 917.136 C 1531.96 869.052 1532.42 821.845 1508.25 769.087 z" fill="rgb(0,237,197)" transform="translate(0,0)"></path>
<path d="M 1393.6 890.49 C 1376.32 863.05 1374.06 830.015 1382.53 798.868 C 1390.53 769.399 1419.95 735.846 1453.83 747.076 C 1472.38 753.224 1483.03 766.807 1491.66 783.67 C 1512.06 819.479 1505.28 884.556 1471.36 910.767 C 1445.17 931.009 1483.92 936.704 1499.09 940.706 C 1511.96 945.218 1543.46 956.423 1551.94 965.776 C 1570.9 977.138 1592.12 998.527 1596.49 1020.96 C 1606.4 1068.01 1612.59 1128.11 1619.91 1176.98 C 1622.81 1196.38 1625.83 1215.76 1628.96 1235.13 C 1630.68 1245.82 1634.04 1263.72 1634.19 1273.86 C 1629.09 1274.12 1623.74 1274.52 1618.66 1274.41 C 1607.63 1235.57 1593.61 1197.36 1581.78 1158.74 C 1579.91 1152.63 1578.22 1147.08 1575.7 1141.03 C 1573.09 1134.76 1567.16 1131.66 1560.47 1133.49 C 1551.26 1136.67 1550.5 1150.4 1549.28 1158.51 C 1542.78 1201.66 1535.28 1244.7 1529.01 1287.9 C 1526.45 1305.52 1532.77 1322.76 1537.59 1339.46 C 1542.55 1356.36 1547.37 1373.31 1552.05 1390.29 L 1600.52 1565.75 C 1608.55 1594.88 1616.81 1622.33 1623.89 1651.82 C 1604.27 1650.39 1590.14 1652.5 1571.88 1652.05 C 1560.14 1630.98 1550.88 1606.04 1540.8 1584.02 C 1518.12 1534.46 1498.61 1484.25 1478.84 1433.51 L 1459.92 1385.13 C 1454.83 1372.09 1450.28 1345.97 1430.68 1356.46 C 1423.61 1360.24 1421.32 1371.88 1418.64 1378.84 C 1412.13 1398.89 1405.52 1418.87 1398.75 1438.84 L 1349.3 1582.49 C 1345.57 1593.5 1341.46 1606.32 1338.08 1617.31 C 1327.53 1651.7 1323.57 1658.74 1287.23 1651.5 C 1282.57 1651.17 1279.61 1651.6 1276.46 1648.73 C 1274.38 1638.78 1329.96 1321.99 1336.86 1293.11 C 1338.86 1247.47 1330.27 1196.5 1330.59 1150.36 C 1330.62 1146.62 1327.98 1138.19 1325.07 1135.44 C 1315.02 1125.94 1304.91 1137.97 1298.25 1145.12 C 1273.95 1171.75 1250.15 1198.83 1225.87 1225.47 C 1213.78 1238.74 1203.33 1253.44 1190.46 1265.84 C 1187.34 1268.85 1183.93 1268.06 1180.02 1267.65 C 1170.92 1265.14 1166.48 1260.15 1171.38 1250.89 C 1190.17 1215.4 1212.76 1182.19 1233.56 1147.94 L 1288.49 1057.63 C 1303.42 1032.7 1326.96 991.685 1345.34 969.328 C 1353.93 958.88 1396.9 945.744 1412.24 940.6 L 1418 937.974 C 1433.46 930.742 1430.47 922.519 1418.08 914.226 C 1408.61 907.89 1399.48 900.411 1393.6 890.49 z" fill="rgb(0,237,197)" transform="translate(0,0)"></path>
<path d="M 1412.24 940.6 C 1420.04 944.531 1429.25 955.006 1435.02 961.743 C 1410.26 968.475 1380.3 972.263 1359.33 987.872 C 1336.96 1004.53 1299.43 1074.21 1283.38 1101.22 C 1263.71 1134.31 1242.96 1166.67 1222.88 1199.49 C 1213.23 1215.4 1203.36 1231.17 1193.3 1246.82 C 1189.6 1252.65 1183.91 1262.56 1180.02 1267.65 C 1170.92 1265.14 1166.48 1260.15 1171.38 1250.89 C 1190.17 1215.4 1212.76 1182.19 1233.56 1147.94 L 1288.49 1057.63 C 1303.42 1032.7 1326.96 991.685 1345.34 969.328 C 1353.93 958.88 1396.9 945.744 1412.24 940.6 z" fill="rgb(255,255,255)" transform="translate(0,0)"></path>
<path d="M 1336.86 1293.11 C 1340.55 1296.25 1342.3 1297.71 1345.47 1301.3 C 1336.17 1370.96 1320.48 1444.93 1309.31 1514.55 L 1294.52 1607.27 C 1293.42 1614.39 1288.98 1646.88 1287.23 1651.5 C 1282.57 1651.17 1279.61 1651.6 1276.46 1648.73 C 1274.38 1638.78 1329.96 1321.99 1336.86 1293.11 z" fill="rgb(255,255,255)" transform="translate(0,0)"></path>
<path d="M 1393.6 890.49 C 1376.32 863.05 1374.06 830.015 1382.53 798.868 C 1390.53 769.399 1419.95 735.846 1453.83 747.076 C 1472.38 753.224 1483.03 766.807 1491.66 783.67 C 1484.16 779.393 1475.57 772.376 1467.33 770.141 C 1417.18 756.544 1386.88 809.802 1387.86 852.89 C 1388.02 859.661 1394.1 888.934 1393.6 890.49 z" fill="rgb(255,255,255)" transform="translate(0,0)"></path>
<path d="M 1495.76 944.205 C 1506.81 951.112 1519.29 953.068 1531.66 957.677 C 1537.86 959.987 1546.17 963.873 1551.94 965.776 C 1570.9 977.138 1592.12 998.527 1596.49 1020.96 C 1592.8 1017.25 1589.5 1012.42 1585.29 1008.34 C 1564.7 988.413 1543.15 974.118 1514.87 968.124 C 1502.98 965.604 1490.15 964.006 1479.17 959.322 L 1477.85 958.747 C 1483.44 952.966 1489.31 948.936 1495.76 944.205 z" fill="rgb(255,255,255)" transform="translate(0,0)"></path>
<path d="M 547.367 915.808 C 505.019 866.159 510.803 769.913 567.987 733.453 C 582.755 723.836 600.796 720.628 617.974 724.563 C 645.179 730.882 659.233 750.176 672.947 772.216 C 681.934 775.54 692.225 791.595 696.016 800.212 C 713.504 839.961 714.426 897.819 682.599 930.853 C 730.24 950.547 730.869 966.175 756.333 1008.15 L 819.363 1111.33 L 870.368 1194.39 C 878.07 1206.92 892.154 1228.63 897.729 1241.45 C 912.431 1258.55 926.848 1288.32 905.283 1306.29 C 899.314 1311.28 891.591 1313.68 883.843 1312.93 C 869.917 1311.51 860.395 1299.91 853.712 1288.64 C 838.775 1278.26 820.091 1255.15 807.612 1240.97 C 790.326 1221.18 772.825 1201.57 755.114 1182.16 C 752.594 1187.14 751.262 1217.05 750.729 1224.48 L 746.584 1283.45 C 744.643 1313.75 745.417 1322 750.448 1352.05 C 754.05 1373.49 757.76 1394.91 761.579 1416.31 C 775.948 1497.39 792.257 1577.64 805.82 1658.74 C 808.562 1675.13 814.305 1693.66 793.87 1699.85 C 784.086 1702.82 750.892 1704.91 741.294 1699.88 C 734.575 1696.36 730.694 1683.05 727.755 1675.71 C 707.156 1674.04 703.714 1670.61 696.669 1652.24 C 688.951 1632.12 681.453 1611.76 673.684 1591.65 L 612.813 1433.49 C 609.196 1440.52 606.533 1451.24 603.781 1458.93 C 582.926 1517.2 559.407 1574.38 537.135 1632.12 C 529.227 1650.83 523.305 1671.24 512.786 1688.65 C 510.288 1692.79 502.752 1696.61 498.432 1698.01 C 484.278 1702.6 435.531 1705.29 425.537 1694.83 C 423.86 1688.61 426.625 1681.3 428.423 1675.05 C 385.705 1670.22 384.979 1669.19 396.133 1628.87 C 401.536 1608.72 407.415 1588.71 413.765 1568.84 L 460.607 1417.29 C 467.634 1395.47 474.546 1373.61 481.342 1351.72 C 484.868 1340.25 489.893 1324.14 492.234 1312.5 C 495.221 1297.64 489.626 1277.56 488.785 1261.32 L 488.71 1259.75 L 487.334 1259.13 C 472.981 1280.1 473.593 1352.33 425.762 1324.23 C 422.028 1322.03 419.136 1317.49 417.032 1313.66 C 417.1 1308.64 416.995 1304.54 417.824 1299.56 C 406.578 1297.76 386.504 1294.57 384.043 1282.67 C 381.798 1271.8 389.383 1241.55 391.169 1230.51 C 398.273 1185.44 405.921 1140.45 414.11 1095.57 C 416.951 1079.54 420.735 1059.39 422.396 1043.35 C 430.589 964.232 482.425 945.131 547.367 915.808 z" fill="rgb(0,34,49)" transform="translate(0,0)"></path>
<path d="M 428.423 1675.05 C 477.524 1676.62 489.766 1681.62 508.955 1629.54 C 525.042 1585.87 543.541 1541.86 559.569 1497.97 C 567.651 1475.49 576.154 1453.16 585.074 1430.99 C 589.007 1421.05 593.845 1407.54 598.554 1398.31 L 599.098 1397.27 C 603.532 1408.82 609.603 1421.79 612.813 1433.49 C 609.196 1440.52 606.533 1451.24 603.781 1458.93 C 582.926 1517.2 559.407 1574.38 537.135 1632.12 C 529.227 1650.83 523.305 1671.24 512.786 1688.65 C 510.288 1692.79 502.752 1696.61 498.432 1698.01 C 484.278 1702.6 435.531 1705.29 425.537 1694.83 C 423.86 1688.61 426.625 1681.3 428.423 1675.05 z" fill="rgb(0,237,197)" transform="translate(0,0)"></path>
<path d="M 738.178 1160.18 C 742.833 1166.98 749.921 1175.52 755.114 1182.16 C 752.594 1187.14 751.262 1217.05 750.729 1224.48 L 746.584 1283.45 C 744.643 1313.75 745.417 1322 750.448 1352.05 C 754.05 1373.49 757.76 1394.91 761.579 1416.31 C 775.948 1497.39 792.257 1577.64 805.82 1658.74 C 808.562 1675.13 814.305 1693.66 793.87 1699.85 C 784.086 1702.82 750.892 1704.91 741.294 1699.88 C 734.575 1696.36 730.694 1683.05 727.755 1675.71 C 746.5 1676.52 790.574 1682.11 790.696 1653.25 C 790.74 1642.83 787.702 1628.63 785.857 1618.05 L 776.385 1564.93 L 744.512 1382.99 C 740.12 1357.81 730.12 1321.62 729.316 1297.39 C 727.891 1254.43 735.947 1203.64 738.178 1160.18 z" fill="rgb(0,237,197)" transform="translate(0,0)"></path>
<path d="M 480.478 1184.83 C 484.58 1204.08 486.628 1238.96 488.71 1259.75 L 487.334 1259.13 C 472.981 1280.1 473.593 1352.33 425.762 1324.23 C 422.028 1322.03 419.136 1317.49 417.032 1313.66 C 417.1 1308.64 416.995 1304.54 417.824 1299.56 C 443.312 1305.15 444.034 1278.67 451.717 1259.81 C 461.808 1235.04 469.637 1209.43 480.478 1184.83 z" fill="rgb(0,237,197)" transform="translate(0,0)"></path>
<path d="M 672.947 772.216 C 681.934 775.54 692.225 791.595 696.016 800.212 C 713.504 839.961 714.426 897.819 682.599 930.853 C 675.823 927.734 662.038 923.552 654.513 921.026 C 694.988 876.962 695.036 825.8 672.947 772.216 z" fill="rgb(0,237,197)" transform="translate(0,0)"></path>
<path d="M 897.729 1241.45 C 912.431 1258.55 926.848 1288.32 905.283 1306.29 C 899.314 1311.28 891.591 1313.68 883.843 1312.93 C 869.917 1311.51 860.395 1299.91 853.712 1288.64 L 856.417 1288.98 C 888.758 1293.2 903.659 1271.8 897.729 1241.45 z" fill="rgb(0,237,197)" transform="translate(0,0)"></path>
<path d="M 559.571 894.404 C 526.438 857.616 538.07 765.634 589.112 747.983 C 621.344 736.836 649.531 764.903 658.484 793.603 C 673.326 826.535 667.643 889.036 631.529 907.374 C 610.942 917.827 611.966 925.084 632.88 934.13 L 667.766 948.547 C 694.586 959.709 709.328 966.427 722.662 994.075 C 732.842 1010.33 742.629 1028.8 753.007 1045.74 L 809.105 1137.2 C 819.753 1154.37 872.815 1235.92 875.785 1248.74 C 883.245 1263.85 868.109 1274.31 855.184 1259.34 C 845.958 1251.06 835.324 1237.7 826.798 1228.2 L 768.255 1162.96 C 759.889 1153.74 751.644 1144.24 742.603 1135.63 C 736.554 1129.87 728.284 1127.53 721.776 1134.19 C 719.713 1136.29 718.188 1140.18 717.57 1143.08 C 715.828 1159.12 714.523 1176.01 713.073 1192.05 C 711.071 1213.43 709.253 1234.82 707.618 1256.22 C 706.812 1266.96 704.825 1286.03 706.14 1296.03 C 708.666 1315.22 712.44 1335.5 715.643 1354.74 C 722.767 1397.26 730.117 1439.74 737.694 1482.19 L 755.515 1584.13 C 759.233 1605.62 763.088 1631.64 768.597 1652.5 C 755.686 1652.9 734.321 1653.98 722.319 1651.09 C 704.306 1605.63 686.638 1560.04 669.317 1514.31 C 661.061 1492.97 652.216 1471.89 643.831 1450.54 C 632.607 1421.97 622.791 1392.53 610.656 1364.33 C 605.405 1352.13 591.976 1353.27 586.74 1364.4 C 574.398 1391.77 564.257 1420.18 553.648 1448.26 L 496.162 1598.29 C 492.15 1608.62 481.239 1638.22 476.652 1646.11 C 461.401 1656.1 447.388 1653.82 429.384 1651.2 C 424.411 1651 419.279 1650.58 414.301 1650.24 C 418.013 1628.49 432.178 1588.67 439.098 1566.01 L 493.414 1388.14 C 501.183 1362.29 511.698 1335.05 515.098 1308.47 L 515.092 1304.92 C 515.156 1287.66 510.874 1263.13 509.121 1245.16 C 506.925 1221.58 504.488 1198.02 501.811 1174.49 C 500.574 1163.32 499.405 1151.71 497.78 1140.58 C 497.217 1137.24 494.251 1133.42 491.308 1131.81 C 486.074 1128.81 478.139 1130.72 475.559 1136.45 C 456.273 1179.25 443.522 1225.19 424.673 1268.19 L 421.908 1277.91 C 416.85 1276.88 411.636 1275.6 406.588 1274.45 C 408.67 1253.63 413.768 1228 417.442 1207.12 L 432.865 1117.02 C 435.83 1099.92 438.589 1082.78 441.14 1065.61 C 445.113 1039.37 447.94 1009.78 466.229 989.275 C 491.764 960.652 537.383 943.689 572.051 928.486 C 577.484 926.313 581.623 924.567 583.451 918.664 C 582.884 909.023 566.182 902.959 559.571 894.404 z" fill="rgb(0,237,197)" transform="translate(0,0)"></path>
<path d="M 406.588 1274.45 C 408.67 1253.63 413.768 1228 417.442 1207.12 L 432.865 1117.02 C 435.83 1099.92 438.589 1082.78 441.14 1065.61 C 445.113 1039.37 447.94 1009.78 466.229 989.275 C 491.764 960.652 537.383 943.689 572.051 928.486 C 581.232 937.825 586.647 942.735 598.142 949.158 C 555.432 975.414 475.974 990.527 463.14 1038.92 C 460.812 1047.71 457.454 1070.66 455.855 1080.74 C 452.965 1098.93 449.851 1117.07 446.514 1135.18 C 441.873 1161.06 436.532 1188.6 432.997 1214.55 C 431.902 1222.59 423.857 1264.56 424.673 1268.19 L 421.908 1277.91 C 416.85 1276.88 411.636 1275.6 406.588 1274.45 z" fill="rgb(255,255,255)" transform="translate(0,0)"></path>
<path d="M 515.098 1308.47 C 515.761 1305.53 515.402 1304.52 517.217 1302.99 C 518.943 1306.11 519.19 1310.9 519.66 1314.49 C 525.485 1358.91 506.21 1402.48 493.195 1443.93 L 452.466 1574.68 L 437.115 1624.33 C 435.019 1631.18 430.616 1644.57 429.384 1651.2 C 424.411 1651 419.279 1650.58 414.301 1650.24 C 418.013 1628.49 432.178 1588.67 439.098 1566.01 L 493.414 1388.14 C 501.183 1362.29 511.698 1335.05 515.098 1308.47 z" fill="rgb(255,255,255)" transform="translate(0,0)"></path>
<path d="M 559.571 894.404 C 526.438 857.616 538.07 765.634 589.112 747.983 C 621.344 736.836 649.531 764.903 658.484 793.603 C 654.43 792.818 653.958 791.016 650.979 788.307 C 600.082 742.014 549.927 806.604 553.955 857.781 C 554.589 865.839 559.999 891.357 559.571 894.404 z" fill="rgb(255,255,255)" transform="translate(0,0)"></path>
<path d="M 722.662 994.075 L 720.264 994.342 C 712.132 989.482 701.661 982.958 693.316 978.839 C 682.759 973.628 627.312 957.873 623.493 950.336 C 624.402 944.155 629.031 938.993 632.88 934.13 L 667.766 948.547 C 694.586 959.709 709.328 966.427 722.662 994.075 z" fill="rgb(255,255,255)" transform="translate(0,0)"></path>
<path d="M 875.785 1248.74 C 883.245 1263.85 868.109 1274.31 855.184 1259.34 C 860.692 1257.24 870.396 1258.88 874.991 1254.33 C 875.958 1253.37 875.7 1250.48 875.785 1248.74 z" fill="rgb(207,254,241)" transform="translate(0,0)"></path>
<path d="M 746.313 665.064 C 736.815 665.363 730.753 650.669 726.551 643.766 C 691.141 585.593 704.143 518.496 753.114 472.464 C 879.999 353.191 1169.63 349.813 1291.32 476.028 C 1297.5 477.887 1305.16 484.949 1309.74 489.561 C 1345.62 525.711 1375.21 577.899 1358.35 629.96 C 1352.66 647.508 1341.43 671.701 1326.35 683.15 C 1314.5 684.674 1275.69 671.72 1262.28 667.52 C 1229.41 657.22 1192.92 650.326 1162.26 634.657 C 1158.1 632.475 1155.51 623.055 1155.01 618.499 C 1154.92 617.631 1154.84 616.761 1154.78 615.89 C 1137.57 611.052 1127.68 608.442 1116.8 591.426 C 1105.7 574.054 1106.02 551.948 1110.45 532.444 C 1099.44 530.465 1088.43 528.588 1077.42 526.654 C 1031.08 518.519 982.681 528.455 938.884 544.382 C 946.506 555.813 952.487 565.008 955.35 578.549 C 959.629 598.779 957.035 628.095 938.798 640.909 C 930.809 646.522 911.571 650.641 901.492 652.797 C 906.688 659.39 906.487 663.177 900.433 669.163 C 897.556 669.961 895.988 670.453 893.21 671.514 C 881.092 675.24 785.261 706.588 779.577 705.628 C 774.141 701.714 774.262 698.213 775.738 692.006 C 773.489 690.303 767.096 691.564 764.093 691.894 C 757.42 684.516 752.316 673.927 746.313 665.064 z" fill="rgb(0,34,49)" transform="translate(0,0)"></path>
<path d="M 1054.08 498.23 C 1074.53 501.171 1098.56 506.272 1118.23 512.553 C 1115.51 518.726 1112 526.01 1110.45 532.444 C 1099.44 530.465 1088.43 528.588 1077.42 526.654 C 1031.08 518.519 982.681 528.455 938.884 544.382 C 946.506 555.813 952.487 565.008 955.35 578.549 C 959.629 598.779 957.035 628.095 938.798 640.909 C 930.809 646.522 911.571 650.641 901.492 652.797 C 906.688 659.39 906.487 663.177 900.433 669.163 C 897.556 669.961 895.988 670.453 893.21 671.514 C 881.092 675.24 785.261 706.588 779.577 705.628 C 774.141 701.714 774.262 698.213 775.738 692.006 C 773.489 690.303 767.096 691.564 764.093 691.894 C 757.42 684.516 752.316 673.927 746.313 665.064 C 751.417 662.49 759.935 659.692 765.545 657.675 C 820.211 637.899 871.964 623.674 925.952 605.727 C 925.03 586.847 929.148 572.347 927.65 552.801 C 923.54 540.12 923.816 533.075 915.902 521.606 C 923.601 520.767 953.77 509.719 967.191 507.442 C 982.256 504.887 1048.04 503.775 1053.41 500.843 L 1054.08 498.23 z" fill="rgb(0,237,197)" transform="translate(0,0)"></path>
<path d="M 927.65 552.801 C 946.261 569.216 947.368 605.649 934.354 625.743 C 931.362 630.364 924.613 633.79 919.435 635.232 C 888.999 643.709 858.537 651.526 828.437 661.326 C 811.472 666.85 794.578 674.093 776.871 676.194 C 768.175 677.148 766.318 664.197 765.545 657.675 C 820.211 637.899 871.964 623.674 925.952 605.727 C 925.03 586.847 929.148 572.347 927.65 552.801 z" fill="rgb(255,255,255)" transform="translate(0,0)"></path>
<path d="M 775.738 692.006 C 779.278 691.614 796.254 685.167 801.185 683.442 C 821.354 676.535 841.569 669.761 861.827 663.12 C 871.35 659.969 892.298 651.579 901.492 652.797 C 906.688 659.39 906.487 663.177 900.433 669.163 C 897.556 669.961 895.988 670.453 893.21 671.514 C 881.092 675.24 785.261 706.588 779.577 705.628 C 774.141 701.714 774.262 698.213 775.738 692.006 z" fill="rgb(0,34,49)" transform="translate(0,0)"></path>
<path d="M 1291.32 476.028 C 1297.5 477.887 1305.16 484.949 1309.74 489.561 C 1345.62 525.711 1375.21 577.899 1358.35 629.96 C 1352.66 647.508 1341.43 671.701 1326.35 683.15 C 1314.5 684.674 1275.69 671.72 1262.28 667.52 C 1229.41 657.22 1192.92 650.326 1162.26 634.657 C 1158.1 632.475 1155.51 623.055 1155.01 618.499 C 1154.92 617.631 1154.84 616.761 1154.78 615.89 L 1160.21 617.268 L 1241.09 640.653 C 1256.91 645.259 1280.28 652.734 1295.86 655.009 C 1303.52 650.312 1308.78 644.063 1313.53 636.505 C 1332.23 606.706 1334.82 574.598 1327.53 540.941 C 1316.07 509.219 1312.19 502.84 1291.32 476.028 z" fill="rgb(0,237,197)" transform="translate(0,0)"></path>
<path d="M 1327.53 540.941 C 1329.56 540.829 1329.72 540.301 1331.22 542.085 C 1358.61 574.759 1348.4 640.963 1320.65 668.973 C 1319.53 670.085 1318.39 671.165 1317.21 672.21 C 1298.47 670.565 1191.88 639.258 1172.63 630.362 C 1169.28 628.815 1166.62 627.184 1164.27 624.312 C 1162.46 622.109 1161.29 619.881 1160.21 617.268 L 1241.09 640.653 C 1256.91 645.259 1280.28 652.734 1295.86 655.009 C 1303.52 650.312 1308.78 644.063 1313.53 636.505 C 1332.23 606.706 1334.82 574.598 1327.53 540.941 z" fill="rgb(255,255,255)" transform="translate(0,0)"></path>
<path d="M 915.902 521.606 L 914.144 518.968 L 915.084 517.602 C 959.401 500.897 1006.88 494.279 1054.08 498.23 L 1053.41 500.843 C 1048.04 503.775 982.256 504.887 967.191 507.442 C 953.77 509.719 923.601 520.767 915.902 521.606 z" fill="url(#Gradient1)" transform="translate(0,0)"></path>
<path d="M 901.16 415.61 C 912.246 411.53 933.059 408.227 945.144 406.165 C 1030.34 391.622 1123.99 400.807 1203.17 436.221 C 1239.17 452.323 1279.53 479.781 1298.82 514.996 C 1315.19 543.894 1319.58 566.576 1311.83 600.193 C 1309.18 611.704 1299.73 629.811 1291.86 638.68 C 1261.33 629.178 1230.76 619.831 1200.15 610.639 C 1189.22 607.309 1167.3 599.831 1156.91 597.568 C 1151.7 595.974 1145.61 594.476 1140.29 593.03 C 1136.68 589.088 1135.43 587.63 1132.57 583.144 C 1116.76 558.956 1124.13 538.14 1137.75 515.838 L 1140.98 511.477 C 1140.99 507.885 1141.46 505.712 1139.35 502.89 C 1125.38 492.713 1058.57 480.68 1039.47 479.518 C 1022.39 478.383 1005.24 479.066 988.297 481.553 C 973.147 483.876 892.813 500.963 888.33 512.583 C 889.302 517.218 893.804 522.384 896.758 526.239 C 914.291 549.111 915.464 564.432 909.077 591.43 C 896.949 596.618 878.935 602 865.833 606.072 C 842.706 613.121 819.699 620.559 796.822 628.381 C 784.486 632.553 767.697 637.888 755.937 643.274 L 748.155 646.251 C 738.679 630.282 732.049 618.784 726.711 600.934 C 699.327 500.545 820.976 436.013 901.16 415.61 z" fill="rgb(255,255,255)" transform="translate(0,0)"></path>
<path d="M 901.16 415.61 C 912.246 411.53 933.059 408.227 945.144 406.165 C 1030.34 391.622 1123.99 400.807 1203.17 436.221 C 1239.17 452.323 1279.53 479.781 1298.82 514.996 C 1298.27 514.823 1297.71 514.649 1297.16 514.476 C 1272.06 496.036 1246.99 478.758 1217.72 467.075 C 1106.46 422.661 971.579 422.205 860.917 468.264 C 794.104 496.073 721.19 558.346 753.052 637.501 C 753.827 639.427 754.928 641.449 755.937 643.274 L 748.155 646.251 C 738.679 630.282 732.049 618.784 726.711 600.934 C 699.327 500.545 820.976 436.013 901.16 415.61 z" fill="rgb(0,237,197)" transform="translate(0,0)"></path>
<path d="M 726.711 600.934 C 699.327 500.545 820.976 436.013 901.16 415.61 L 901.231 418.202 C 898.149 419.798 898.729 419.317 895.91 420.267 C 854.92 434.082 802.359 472.761 773.879 503.73 C 763.41 515.256 754.248 527.906 746.563 541.448 C 736.523 558.974 732.93 579.074 728.696 598.534 C 728.459 599.621 727.536 600.338 726.711 600.934 z" fill="rgb(255,255,255)" transform="translate(0,0)"></path>
<path d="M 1137.75 515.838 L 1140.98 511.477 C 1153.09 514.858 1159.84 522.959 1169.38 531.502 C 1143.91 554.224 1149.53 568.808 1156.91 597.568 C 1151.7 595.974 1145.61 594.476 1140.29 593.03 C 1136.68 589.088 1135.43 587.63 1132.57 583.144 C 1116.76 558.956 1124.13 538.14 1137.75 515.838 z" fill="rgb(0,237,197)" transform="translate(0,0)"></path>
<path d="M 1137.75 515.838 C 1140.1 517.595 1143.6 519.351 1143.14 522.073 C 1141.06 534.41 1133.83 543.011 1132.64 556.154 C 1132.06 562.604 1134.32 579.704 1132.57 583.144 C 1116.76 558.956 1124.13 538.14 1137.75 515.838 z" fill="rgb(255,255,255)" transform="translate(0,0)"></path>
<path d="M 1146.83 654.998 C 1167.02 653.79 1221.4 677.376 1243.46 681.409 C 1249.45 682.503 1264.23 687.194 1266.65 692.917 C 1266.35 696.985 1265.94 697.369 1264 701.102 C 1256.21 703.753 1248.37 700.714 1240.6 698.446 C 1211.61 689.984 1182.77 680.868 1153.94 671.886 C 1143.12 668.514 1142.44 664.966 1146.83 654.998 z" fill="rgb(0,34,49)" transform="translate(0,0)"></path>
<path d="M 900.433 669.163 C 910.239 671.915 923.475 672.967 930.04 680.506 C 931.258 683.78 931.256 686.093 929.761 689.246 C 927.085 694.895 922.832 696.744 917.141 698.521 C 898.092 704.467 812.528 735.218 799.137 727.729 C 794.997 725.413 792.991 721.635 791.574 717.28 L 792.13 715.396 C 798.707 714.858 804.455 719.49 813.195 718.703 C 827.388 717.426 906.946 695.101 913.031 687.204 C 913.88 686.101 913.843 684.725 913.416 683.418 C 911.174 676.539 899.375 673.625 893.21 671.514 C 895.988 670.453 897.556 669.961 900.433 669.163 z" fill="rgb(0,237,197)" transform="translate(0,0)"></path>
<path d="M 1170.94 687.585 C 1196.38 688.505 1233.46 707.135 1258.84 713.937 C 1274.99 718.264 1271.48 724.636 1292.6 715.219 C 1294.3 714.46 1295.47 715.627 1296.77 716.607 C 1298.33 720.405 1297.96 721.337 1297.64 725.601 C 1295.39 728.116 1292.91 730.902 1289.43 731.539 C 1281.33 733.025 1178.97 700 1172.82 694.744 C 1170.46 692.727 1171.04 690.403 1170.94 687.585 z" fill="rgb(0,237,197)" transform="translate(0,0)"></path>
<metadata><recraft-signature>{"signed_by": "recraft", "signature_b64": "CyCuFsJxb47tpr765geaBN5EmNq4T1h2wIqh+pwV7KquWGVwzw/zwBmcHdEayA4Ytx6qLzgCWTWSrGTbBkuRBw==", "signing_algo": "Ed25519", "generation_timestamp": 1781649481, "identifier": "46f5f084-cd13-43c3-86cc-ed5f6cc373e2"}</recraft-signature></metadata></svg>